G04 #@! TF.GenerationSoftware,KiCad,Pcbnew,(5.0.1)-4*
G04 #@! TF.CreationDate,2018-12-08T00:24:21+01:00*
G04 #@! TF.ProjectId,Motion Detector,4D6F74696F6E204465746563746F722E,rev?*
G04 #@! TF.SameCoordinates,Original*
G04 #@! TF.FileFunction,Copper,L2,Bot,Signal*
G04 #@! TF.FilePolarity,Positive*
%FSLAX46Y46*%
G04 Gerber Fmt 4.6, Leading zero omitted, Abs format (unit mm)*
G04 Created by KiCad (PCBNEW (5.0.1)-4) date 08-Dec-18 12:24:21 AM*
%MOMM*%
%LPD*%
G01*
G04 APERTURE LIST*
G04 #@! TA.AperFunction,ComponentPad*
%ADD10C,1.600000*%
G04 #@! TD*
G04 #@! TA.AperFunction,ComponentPad*
%ADD11R,1.800000X1.800000*%
G04 #@! TD*
G04 #@! TA.AperFunction,ComponentPad*
%ADD12O,1.800000X1.800000*%
G04 #@! TD*
G04 #@! TA.AperFunction,ComponentPad*
%ADD13O,5.000000X2.000000*%
G04 #@! TD*
G04 #@! TA.AperFunction,ComponentPad*
%ADD14R,1.700000X1.700000*%
G04 #@! TD*
G04 #@! TA.AperFunction,ComponentPad*
%ADD15O,1.700000X1.700000*%
G04 #@! TD*
G04 #@! TA.AperFunction,ComponentPad*
%ADD16O,1.050000X1.500000*%
G04 #@! TD*
G04 #@! TA.AperFunction,ComponentPad*
%ADD17R,1.050000X1.500000*%
G04 #@! TD*
G04 #@! TA.AperFunction,ComponentPad*
%ADD18O,1.400000X1.400000*%
G04 #@! TD*
G04 #@! TA.AperFunction,ComponentPad*
%ADD19C,1.400000*%
G04 #@! TD*
G04 #@! TA.AperFunction,ComponentPad*
%ADD20C,1.524000*%
G04 #@! TD*
G04 #@! TA.AperFunction,Conductor*
%ADD21C,0.600000*%
G04 #@! TD*
G04 #@! TA.AperFunction,Conductor*
%ADD22C,0.254000*%
G04 #@! TD*
G04 APERTURE END LIST*
D10*
G04 #@! TO.P,C1,2*
G04 #@! TO.N,/D2*
X154900000Y-88900000D03*
G04 #@! TO.P,C1,1*
G04 #@! TO.N,/DB2*
X152400000Y-88900000D03*
G04 #@! TD*
G04 #@! TO.P,C2,2*
G04 #@! TO.N,/D1*
X142280000Y-88900000D03*
G04 #@! TO.P,C2,1*
G04 #@! TO.N,/DB1*
X144780000Y-88900000D03*
G04 #@! TD*
D11*
G04 #@! TO.P,D1,1*
G04 #@! TO.N,/D0*
X152400000Y-76200000D03*
D12*
G04 #@! TO.P,D1,2*
G04 #@! TO.N,/RST*
X144780000Y-76200000D03*
G04 #@! TD*
D13*
G04 #@! TO.P,J1,1*
G04 #@! TO.N,GND*
X148590000Y-92750000D03*
G04 #@! TO.P,J1,2*
G04 #@! TO.N,VCC*
X148590000Y-98250000D03*
G04 #@! TD*
D14*
G04 #@! TO.P,J2,1*
G04 #@! TO.N,GND*
X153670000Y-107950000D03*
D15*
G04 #@! TO.P,J2,2*
G04 #@! TO.N,/D2*
X153670000Y-110490000D03*
G04 #@! TO.P,J2,3*
G04 #@! TO.N,VCC*
X153670000Y-113030000D03*
G04 #@! TD*
G04 #@! TO.P,J3,3*
G04 #@! TO.N,VCC*
X143510000Y-113030000D03*
G04 #@! TO.P,J3,2*
G04 #@! TO.N,/D1*
X143510000Y-110490000D03*
D14*
G04 #@! TO.P,J3,1*
G04 #@! TO.N,GND*
X143510000Y-107950000D03*
G04 #@! TD*
D16*
G04 #@! TO.P,Q1,2*
G04 #@! TO.N,/DB2*
X152400000Y-84455000D03*
G04 #@! TO.P,Q1,3*
G04 #@! TO.N,GND*
X153670000Y-84455000D03*
D17*
G04 #@! TO.P,Q1,1*
G04 #@! TO.N,/RST*
X151130000Y-84455000D03*
G04 #@! TD*
G04 #@! TO.P,Q2,1*
G04 #@! TO.N,/RST*
X143510000Y-84455000D03*
D16*
G04 #@! TO.P,Q2,3*
G04 #@! TO.N,GND*
X146050000Y-84455000D03*
G04 #@! TO.P,Q2,2*
G04 #@! TO.N,/DB1*
X144780000Y-84455000D03*
G04 #@! TD*
D18*
G04 #@! TO.P,R1,2*
G04 #@! TO.N,/DB2*
X153670000Y-93980000D03*
D19*
G04 #@! TO.P,R1,1*
G04 #@! TO.N,GND*
X153670000Y-101600000D03*
G04 #@! TD*
G04 #@! TO.P,R2,1*
G04 #@! TO.N,GND*
X143510000Y-101600000D03*
D18*
G04 #@! TO.P,R2,2*
G04 #@! TO.N,/DB1*
X143510000Y-93980000D03*
G04 #@! TD*
D19*
G04 #@! TO.P,R3,1*
G04 #@! TO.N,/RST*
X144780000Y-79375000D03*
D18*
G04 #@! TO.P,R3,2*
G04 #@! TO.N,+3V3*
X152400000Y-79375000D03*
G04 #@! TD*
D20*
G04 #@! TO.P,U1,1*
G04 #@! TO.N,Net-(U1-Pad1)*
X137160000Y-77470000D03*
G04 #@! TO.P,U1,2*
G04 #@! TO.N,Net-(U1-Pad2)*
X137160000Y-80010000D03*
G04 #@! TO.P,U1,3*
G04 #@! TO.N,Net-(U1-Pad3)*
X137160000Y-82550000D03*
G04 #@! TO.P,U1,4*
G04 #@! TO.N,Net-(U1-Pad4)*
X137160000Y-85090000D03*
G04 #@! TO.P,U1,5*
G04 #@! TO.N,Net-(U1-Pad5)*
X137160000Y-87630000D03*
G04 #@! TO.P,U1,6*
G04 #@! TO.N,Net-(U1-Pad6)*
X137160000Y-90170000D03*
G04 #@! TO.P,U1,7*
G04 #@! TO.N,Net-(U1-Pad7)*
X137160000Y-92710000D03*
G04 #@! TO.P,U1,8*
G04 #@! TO.N,Net-(U1-Pad8)*
X137160000Y-95250000D03*
G04 #@! TO.P,U1,9*
G04 #@! TO.N,Net-(U1-Pad9)*
X137160000Y-97790000D03*
G04 #@! TO.P,U1,10*
G04 #@! TO.N,GND*
X137160000Y-100330000D03*
G04 #@! TO.P,U1,11*
G04 #@! TO.N,+3V3*
X137160000Y-102870000D03*
G04 #@! TO.P,U1,12*
G04 #@! TO.N,Net-(U1-Pad12)*
X137160000Y-105410000D03*
G04 #@! TO.P,U1,13*
G04 #@! TO.N,/RST*
X137160000Y-107950000D03*
G04 #@! TO.P,U1,14*
G04 #@! TO.N,GND*
X137160000Y-110490000D03*
G04 #@! TO.P,U1,15*
G04 #@! TO.N,VCC*
X137160000Y-113030000D03*
G04 #@! TO.P,U1,16*
G04 #@! TO.N,+3V3*
X160020000Y-113030000D03*
G04 #@! TO.P,U1,17*
G04 #@! TO.N,GND*
X160020000Y-110490000D03*
G04 #@! TO.P,U1,18*
G04 #@! TO.N,Net-(U1-Pad18)*
X160020000Y-107950000D03*
G04 #@! TO.P,U1,19*
G04 #@! TO.N,Net-(U1-Pad19)*
X160020000Y-105410000D03*
G04 #@! TO.P,U1,20*
G04 #@! TO.N,Net-(U1-Pad20)*
X160020000Y-102870000D03*
G04 #@! TO.P,U1,21*
G04 #@! TO.N,Net-(U1-Pad21)*
X160020000Y-100330000D03*
G04 #@! TO.P,U1,22*
G04 #@! TO.N,Net-(U1-Pad22)*
X160020000Y-97790000D03*
G04 #@! TO.P,U1,23*
G04 #@! TO.N,Net-(U1-Pad23)*
X160020000Y-95250000D03*
G04 #@! TO.P,U1,24*
G04 #@! TO.N,GND*
X160020000Y-92710000D03*
G04 #@! TO.P,U1,25*
G04 #@! TO.N,+3V3*
X160020000Y-90170000D03*
G04 #@! TO.P,U1,26*
G04 #@! TO.N,Net-(U1-Pad26)*
X160020000Y-87630000D03*
G04 #@! TO.P,U1,27*
G04 #@! TO.N,Net-(U1-Pad27)*
X160020000Y-85090000D03*
G04 #@! TO.P,U1,28*
G04 #@! TO.N,/D2*
X160020000Y-82550000D03*
G04 #@! TO.P,U1,29*
G04 #@! TO.N,/D1*
X160020000Y-80010000D03*
G04 #@! TO.P,U1,30*
G04 #@! TO.N,/D0*
X160020000Y-77470000D03*
G04 #@! TD*
D21*
G04 #@! TO.N,VCC*
X137160000Y-113030000D02*
X143510000Y-113030000D01*
X148590000Y-98250000D02*
X148590000Y-99850000D01*
X148590000Y-112395000D02*
X149225000Y-113030000D01*
X149225000Y-113030000D02*
X154305000Y-113030000D01*
X148590000Y-113030000D02*
X149225000Y-113030000D01*
X148590000Y-112395000D02*
X148590000Y-113030000D01*
X148590000Y-99850000D02*
X148590000Y-112395000D01*
X148590000Y-112395000D02*
X147955000Y-113030000D01*
X143510000Y-113030000D02*
X147955000Y-113030000D01*
X147955000Y-113030000D02*
X148590000Y-113030000D01*
G04 #@! TO.N,+3V3*
X158750000Y-90170000D02*
X160020000Y-90170000D01*
X157480000Y-88900000D02*
X158750000Y-90170000D01*
X157480000Y-81915000D02*
X157480000Y-88900000D01*
X152400000Y-79375000D02*
X154940000Y-79375000D01*
X154940000Y-79375000D02*
X157480000Y-81915000D01*
G04 #@! TD*
D22*
G04 #@! TO.N,GND*
G36*
X144023783Y-78243242D02*
X143648242Y-78618783D01*
X143445000Y-79109452D01*
X143445000Y-79640548D01*
X143648242Y-80131217D01*
X144023783Y-80506758D01*
X144514452Y-80710000D01*
X145045548Y-80710000D01*
X145536217Y-80506758D01*
X145911758Y-80131217D01*
X146115000Y-79640548D01*
X146115000Y-79109452D01*
X145911758Y-78618783D01*
X145536217Y-78243242D01*
X145509076Y-78232000D01*
X151707685Y-78232000D01*
X151437519Y-78412519D01*
X151142458Y-78854109D01*
X151038846Y-79375000D01*
X151142458Y-79895891D01*
X151437519Y-80337481D01*
X151879109Y-80632542D01*
X152268515Y-80710000D01*
X152531485Y-80710000D01*
X152920891Y-80632542D01*
X153362481Y-80337481D01*
X153380843Y-80310000D01*
X154552711Y-80310000D01*
X156545000Y-82302290D01*
X156545001Y-88807910D01*
X156526683Y-88900000D01*
X156599250Y-89264818D01*
X156599251Y-89264819D01*
X156805904Y-89574097D01*
X156883970Y-89626259D01*
X158023741Y-90766031D01*
X158075903Y-90844097D01*
X158385181Y-91050750D01*
X158623000Y-91098055D01*
X158623000Y-91440000D01*
X158632667Y-91488601D01*
X158660197Y-91529803D01*
X158701399Y-91557333D01*
X158750000Y-91567000D01*
X159266084Y-91567000D01*
X159219392Y-91729787D01*
X160020000Y-92530395D01*
X160034143Y-92516253D01*
X160213748Y-92695858D01*
X160199605Y-92710000D01*
X160213748Y-92724143D01*
X160034143Y-92903748D01*
X160020000Y-92889605D01*
X159219392Y-93690213D01*
X159266084Y-93853000D01*
X158750000Y-93853000D01*
X158701399Y-93862667D01*
X158660197Y-93890197D01*
X158632667Y-93931399D01*
X158623000Y-93980000D01*
X158623000Y-109220000D01*
X158632667Y-109268601D01*
X158660197Y-109309803D01*
X158701399Y-109337333D01*
X158750000Y-109347000D01*
X159266084Y-109347000D01*
X159219392Y-109509787D01*
X160020000Y-110310395D01*
X160034143Y-110296253D01*
X160213748Y-110475858D01*
X160199605Y-110490000D01*
X160213748Y-110504143D01*
X160034143Y-110683748D01*
X160020000Y-110669605D01*
X159219392Y-111470213D01*
X159266084Y-111633000D01*
X154632308Y-111633000D01*
X154740625Y-111560625D01*
X155068839Y-111069418D01*
X155184092Y-110490000D01*
X155142779Y-110282302D01*
X158610856Y-110282302D01*
X158638638Y-110837368D01*
X158797603Y-111221143D01*
X159039787Y-111290608D01*
X159840395Y-110490000D01*
X159039787Y-109689392D01*
X158797603Y-109758857D01*
X158610856Y-110282302D01*
X155142779Y-110282302D01*
X155068839Y-109910582D01*
X154740625Y-109419375D01*
X154718967Y-109404904D01*
X154879698Y-109338327D01*
X155058327Y-109159699D01*
X155155000Y-108926310D01*
X155155000Y-108235750D01*
X154996250Y-108077000D01*
X153797000Y-108077000D01*
X153797000Y-108097000D01*
X153543000Y-108097000D01*
X153543000Y-108077000D01*
X152343750Y-108077000D01*
X152185000Y-108235750D01*
X152185000Y-108926310D01*
X152281673Y-109159699D01*
X152460302Y-109338327D01*
X152621033Y-109404904D01*
X152599375Y-109419375D01*
X152271161Y-109910582D01*
X152155908Y-110490000D01*
X152271161Y-111069418D01*
X152599375Y-111560625D01*
X152707692Y-111633000D01*
X149525000Y-111633000D01*
X149525000Y-106973690D01*
X152185000Y-106973690D01*
X152185000Y-107664250D01*
X152343750Y-107823000D01*
X153543000Y-107823000D01*
X153543000Y-106623750D01*
X153797000Y-106623750D01*
X153797000Y-107823000D01*
X154996250Y-107823000D01*
X155155000Y-107664250D01*
X155155000Y-106973690D01*
X155058327Y-106740301D01*
X154879698Y-106561673D01*
X154646309Y-106465000D01*
X153955750Y-106465000D01*
X153797000Y-106623750D01*
X153543000Y-106623750D01*
X153384250Y-106465000D01*
X152693691Y-106465000D01*
X152460302Y-106561673D01*
X152281673Y-106740301D01*
X152185000Y-106973690D01*
X149525000Y-106973690D01*
X149525000Y-102535275D01*
X152914331Y-102535275D01*
X152976169Y-102771042D01*
X153477122Y-102947419D01*
X154007440Y-102918664D01*
X154363831Y-102771042D01*
X154425669Y-102535275D01*
X153670000Y-101779605D01*
X152914331Y-102535275D01*
X149525000Y-102535275D01*
X149525000Y-101407122D01*
X152322581Y-101407122D01*
X152351336Y-101937440D01*
X152498958Y-102293831D01*
X152734725Y-102355669D01*
X153490395Y-101600000D01*
X153849605Y-101600000D01*
X154605275Y-102355669D01*
X154841042Y-102293831D01*
X155017419Y-101792878D01*
X154988664Y-101262560D01*
X154841042Y-100906169D01*
X154605275Y-100844331D01*
X153849605Y-101600000D01*
X153490395Y-101600000D01*
X152734725Y-100844331D01*
X152498958Y-100906169D01*
X152322581Y-101407122D01*
X149525000Y-101407122D01*
X149525000Y-100664725D01*
X152914331Y-100664725D01*
X153670000Y-101420395D01*
X154425669Y-100664725D01*
X154363831Y-100428958D01*
X153862878Y-100252581D01*
X153332560Y-100281336D01*
X152976169Y-100428958D01*
X152914331Y-100664725D01*
X149525000Y-100664725D01*
X149525000Y-99885000D01*
X150251031Y-99885000D01*
X150727945Y-99790136D01*
X151268769Y-99428769D01*
X151630136Y-98887945D01*
X151757031Y-98250000D01*
X151630136Y-97612055D01*
X151268769Y-97071231D01*
X150727945Y-96709864D01*
X150251031Y-96615000D01*
X146928969Y-96615000D01*
X146452055Y-96709864D01*
X145911231Y-97071231D01*
X145549864Y-97612055D01*
X145422969Y-98250000D01*
X145549864Y-98887945D01*
X145911231Y-99428769D01*
X146452055Y-99790136D01*
X146928969Y-99885000D01*
X147655000Y-99885000D01*
X147655001Y-111633000D01*
X144472308Y-111633000D01*
X144580625Y-111560625D01*
X144908839Y-111069418D01*
X145024092Y-110490000D01*
X144908839Y-109910582D01*
X144580625Y-109419375D01*
X144558967Y-109404904D01*
X144719698Y-109338327D01*
X144898327Y-109159699D01*
X144995000Y-108926310D01*
X144995000Y-108235750D01*
X144836250Y-108077000D01*
X143637000Y-108077000D01*
X143637000Y-108097000D01*
X143383000Y-108097000D01*
X143383000Y-108077000D01*
X142183750Y-108077000D01*
X142025000Y-108235750D01*
X142025000Y-108926310D01*
X142121673Y-109159699D01*
X142300302Y-109338327D01*
X142461033Y-109404904D01*
X142439375Y-109419375D01*
X142111161Y-109910582D01*
X141995908Y-110490000D01*
X142111161Y-111069418D01*
X142439375Y-111560625D01*
X142547692Y-111633000D01*
X137913916Y-111633000D01*
X137960608Y-111470213D01*
X137160000Y-110669605D01*
X137145858Y-110683748D01*
X136966253Y-110504143D01*
X136980395Y-110490000D01*
X137339605Y-110490000D01*
X138140213Y-111290608D01*
X138382397Y-111221143D01*
X138569144Y-110697698D01*
X138541362Y-110142632D01*
X138382397Y-109758857D01*
X138140213Y-109689392D01*
X137339605Y-110490000D01*
X136980395Y-110490000D01*
X136966253Y-110475858D01*
X137145858Y-110296253D01*
X137160000Y-110310395D01*
X137960608Y-109509787D01*
X137913916Y-109347000D01*
X138430000Y-109347000D01*
X138478601Y-109337333D01*
X138519803Y-109309803D01*
X138547333Y-109268601D01*
X138557000Y-109220000D01*
X138557000Y-106973690D01*
X142025000Y-106973690D01*
X142025000Y-107664250D01*
X142183750Y-107823000D01*
X143383000Y-107823000D01*
X143383000Y-106623750D01*
X143637000Y-106623750D01*
X143637000Y-107823000D01*
X144836250Y-107823000D01*
X144995000Y-107664250D01*
X144995000Y-106973690D01*
X144898327Y-106740301D01*
X144719698Y-106561673D01*
X144486309Y-106465000D01*
X143795750Y-106465000D01*
X143637000Y-106623750D01*
X143383000Y-106623750D01*
X143224250Y-106465000D01*
X142533691Y-106465000D01*
X142300302Y-106561673D01*
X142121673Y-106740301D01*
X142025000Y-106973690D01*
X138557000Y-106973690D01*
X138557000Y-102535275D01*
X142754331Y-102535275D01*
X142816169Y-102771042D01*
X143317122Y-102947419D01*
X143847440Y-102918664D01*
X144203831Y-102771042D01*
X144265669Y-102535275D01*
X143510000Y-101779605D01*
X142754331Y-102535275D01*
X138557000Y-102535275D01*
X138557000Y-101600000D01*
X138547333Y-101551399D01*
X138519803Y-101510197D01*
X138478601Y-101482667D01*
X138430000Y-101473000D01*
X137913916Y-101473000D01*
X137932811Y-101407122D01*
X142162581Y-101407122D01*
X142191336Y-101937440D01*
X142338958Y-102293831D01*
X142574725Y-102355669D01*
X143330395Y-101600000D01*
X143689605Y-101600000D01*
X144445275Y-102355669D01*
X144681042Y-102293831D01*
X144857419Y-101792878D01*
X144828664Y-101262560D01*
X144681042Y-100906169D01*
X144445275Y-100844331D01*
X143689605Y-101600000D01*
X143330395Y-101600000D01*
X142574725Y-100844331D01*
X142338958Y-100906169D01*
X142162581Y-101407122D01*
X137932811Y-101407122D01*
X137960608Y-101310213D01*
X137160000Y-100509605D01*
X137145858Y-100523748D01*
X136966253Y-100344143D01*
X136980395Y-100330000D01*
X137339605Y-100330000D01*
X138140213Y-101130608D01*
X138382397Y-101061143D01*
X138523825Y-100664725D01*
X142754331Y-100664725D01*
X143510000Y-101420395D01*
X144265669Y-100664725D01*
X144203831Y-100428958D01*
X143702878Y-100252581D01*
X143172560Y-100281336D01*
X142816169Y-100428958D01*
X142754331Y-100664725D01*
X138523825Y-100664725D01*
X138569144Y-100537698D01*
X138541362Y-99982632D01*
X138382397Y-99598857D01*
X138140213Y-99529392D01*
X137339605Y-100330000D01*
X136980395Y-100330000D01*
X136966253Y-100315858D01*
X137145858Y-100136253D01*
X137160000Y-100150395D01*
X137960608Y-99349787D01*
X137913916Y-99187000D01*
X138430000Y-99187000D01*
X138478601Y-99177333D01*
X138519803Y-99149803D01*
X138547333Y-99108601D01*
X138557000Y-99060000D01*
X138557000Y-93980000D01*
X142148846Y-93980000D01*
X142252458Y-94500891D01*
X142547519Y-94942481D01*
X142989109Y-95237542D01*
X143378515Y-95315000D01*
X143641485Y-95315000D01*
X144030891Y-95237542D01*
X144472481Y-94942481D01*
X144767542Y-94500891D01*
X144871154Y-93980000D01*
X144767542Y-93459109D01*
X144547929Y-93130434D01*
X145499876Y-93130434D01*
X145530856Y-93258355D01*
X145844078Y-93816317D01*
X146346980Y-94211942D01*
X146963000Y-94385000D01*
X148463000Y-94385000D01*
X148463000Y-92877000D01*
X148717000Y-92877000D01*
X148717000Y-94385000D01*
X150217000Y-94385000D01*
X150833020Y-94211942D01*
X151127854Y-93980000D01*
X152308846Y-93980000D01*
X152412458Y-94500891D01*
X152707519Y-94942481D01*
X153149109Y-95237542D01*
X153538515Y-95315000D01*
X153801485Y-95315000D01*
X154190891Y-95237542D01*
X154632481Y-94942481D01*
X154927542Y-94500891D01*
X155031154Y-93980000D01*
X154927542Y-93459109D01*
X154632481Y-93017519D01*
X154190891Y-92722458D01*
X153801485Y-92645000D01*
X153538515Y-92645000D01*
X153149109Y-92722458D01*
X152707519Y-93017519D01*
X152412458Y-93459109D01*
X152308846Y-93980000D01*
X151127854Y-93980000D01*
X151335922Y-93816317D01*
X151649144Y-93258355D01*
X151680124Y-93130434D01*
X151560777Y-92877000D01*
X148717000Y-92877000D01*
X148463000Y-92877000D01*
X145619223Y-92877000D01*
X145499876Y-93130434D01*
X144547929Y-93130434D01*
X144472481Y-93017519D01*
X144030891Y-92722458D01*
X143641485Y-92645000D01*
X143378515Y-92645000D01*
X142989109Y-92722458D01*
X142547519Y-93017519D01*
X142252458Y-93459109D01*
X142148846Y-93980000D01*
X138557000Y-93980000D01*
X138557000Y-92369566D01*
X145499876Y-92369566D01*
X145619223Y-92623000D01*
X148463000Y-92623000D01*
X148463000Y-91115000D01*
X148717000Y-91115000D01*
X148717000Y-92623000D01*
X151560777Y-92623000D01*
X151617616Y-92502302D01*
X158610856Y-92502302D01*
X158638638Y-93057368D01*
X158797603Y-93441143D01*
X159039787Y-93510608D01*
X159840395Y-92710000D01*
X159039787Y-91909392D01*
X158797603Y-91978857D01*
X158610856Y-92502302D01*
X151617616Y-92502302D01*
X151680124Y-92369566D01*
X151649144Y-92241645D01*
X151335922Y-91683683D01*
X150833020Y-91288058D01*
X150217000Y-91115000D01*
X148717000Y-91115000D01*
X148463000Y-91115000D01*
X146963000Y-91115000D01*
X146346980Y-91288058D01*
X145844078Y-91683683D01*
X145530856Y-92241645D01*
X145499876Y-92369566D01*
X138557000Y-92369566D01*
X138557000Y-88614561D01*
X140845000Y-88614561D01*
X140845000Y-89185439D01*
X141063466Y-89712862D01*
X141467138Y-90116534D01*
X141994561Y-90335000D01*
X142565439Y-90335000D01*
X143092862Y-90116534D01*
X143496534Y-89712862D01*
X143530000Y-89632068D01*
X143563466Y-89712862D01*
X143967138Y-90116534D01*
X144494561Y-90335000D01*
X145065439Y-90335000D01*
X145592862Y-90116534D01*
X145996534Y-89712862D01*
X146215000Y-89185439D01*
X146215000Y-88614561D01*
X150965000Y-88614561D01*
X150965000Y-89185439D01*
X151183466Y-89712862D01*
X151587138Y-90116534D01*
X152114561Y-90335000D01*
X152685439Y-90335000D01*
X153212862Y-90116534D01*
X153616534Y-89712862D01*
X153650000Y-89632068D01*
X153683466Y-89712862D01*
X154087138Y-90116534D01*
X154614561Y-90335000D01*
X155185439Y-90335000D01*
X155712862Y-90116534D01*
X156116534Y-89712862D01*
X156335000Y-89185439D01*
X156335000Y-88614561D01*
X156116534Y-88087138D01*
X155712862Y-87683466D01*
X155185439Y-87465000D01*
X154614561Y-87465000D01*
X154087138Y-87683466D01*
X153683466Y-88087138D01*
X153650000Y-88167932D01*
X153616534Y-88087138D01*
X153212862Y-87683466D01*
X152685439Y-87465000D01*
X152114561Y-87465000D01*
X151587138Y-87683466D01*
X151183466Y-88087138D01*
X150965000Y-88614561D01*
X146215000Y-88614561D01*
X145996534Y-88087138D01*
X145592862Y-87683466D01*
X145065439Y-87465000D01*
X144494561Y-87465000D01*
X143967138Y-87683466D01*
X143563466Y-88087138D01*
X143530000Y-88167932D01*
X143496534Y-88087138D01*
X143092862Y-87683466D01*
X142565439Y-87465000D01*
X141994561Y-87465000D01*
X141467138Y-87683466D01*
X141063466Y-88087138D01*
X140845000Y-88614561D01*
X138557000Y-88614561D01*
X138557000Y-83705000D01*
X142337560Y-83705000D01*
X142337560Y-85205000D01*
X142386843Y-85452765D01*
X142527191Y-85662809D01*
X142737235Y-85803157D01*
X142985000Y-85852440D01*
X144035000Y-85852440D01*
X144282765Y-85803157D01*
X144328134Y-85772842D01*
X144780000Y-85862725D01*
X145232609Y-85772695D01*
X145424996Y-85644146D01*
X145682664Y-85790266D01*
X145744190Y-85798964D01*
X145923000Y-85673163D01*
X145923000Y-84879709D01*
X145940000Y-84794245D01*
X145940000Y-84582000D01*
X146177000Y-84582000D01*
X146177000Y-85673163D01*
X146355810Y-85798964D01*
X146417336Y-85790266D01*
X146814255Y-85565179D01*
X147094823Y-85205331D01*
X147216326Y-84765506D01*
X147056593Y-84582000D01*
X146177000Y-84582000D01*
X145940000Y-84582000D01*
X145940000Y-84115754D01*
X145923000Y-84030290D01*
X145923000Y-83236837D01*
X146177000Y-83236837D01*
X146177000Y-84328000D01*
X147056593Y-84328000D01*
X147216326Y-84144494D01*
X147094915Y-83705000D01*
X149957560Y-83705000D01*
X149957560Y-85205000D01*
X150006843Y-85452765D01*
X150147191Y-85662809D01*
X150357235Y-85803157D01*
X150605000Y-85852440D01*
X151655000Y-85852440D01*
X151902765Y-85803157D01*
X151948134Y-85772842D01*
X152400000Y-85862725D01*
X152852609Y-85772695D01*
X153044996Y-85644146D01*
X153302664Y-85790266D01*
X153364190Y-85798964D01*
X153543000Y-85673163D01*
X153543000Y-84879709D01*
X153560000Y-84794245D01*
X153560000Y-84582000D01*
X153797000Y-84582000D01*
X153797000Y-85673163D01*
X153975810Y-85798964D01*
X154037336Y-85790266D01*
X154434255Y-85565179D01*
X154714823Y-85205331D01*
X154836326Y-84765506D01*
X154676593Y-84582000D01*
X153797000Y-84582000D01*
X153560000Y-84582000D01*
X153560000Y-84115754D01*
X153543000Y-84030290D01*
X153543000Y-83236837D01*
X153797000Y-83236837D01*
X153797000Y-84328000D01*
X154676593Y-84328000D01*
X154836326Y-84144494D01*
X154714823Y-83704669D01*
X154434255Y-83344821D01*
X154037336Y-83119734D01*
X153975810Y-83111036D01*
X153797000Y-83236837D01*
X153543000Y-83236837D01*
X153364190Y-83111036D01*
X153302664Y-83119734D01*
X153044996Y-83265854D01*
X152852608Y-83137305D01*
X152400000Y-83047275D01*
X151948133Y-83137157D01*
X151902765Y-83106843D01*
X151655000Y-83057560D01*
X150605000Y-83057560D01*
X150357235Y-83106843D01*
X150147191Y-83247191D01*
X150006843Y-83457235D01*
X149957560Y-83705000D01*
X147094915Y-83705000D01*
X147094823Y-83704669D01*
X146814255Y-83344821D01*
X146417336Y-83119734D01*
X146355810Y-83111036D01*
X146177000Y-83236837D01*
X145923000Y-83236837D01*
X145744190Y-83111036D01*
X145682664Y-83119734D01*
X145424996Y-83265854D01*
X145232608Y-83137305D01*
X144780000Y-83047275D01*
X144328133Y-83137157D01*
X144282765Y-83106843D01*
X144035000Y-83057560D01*
X142985000Y-83057560D01*
X142737235Y-83106843D01*
X142527191Y-83247191D01*
X142386843Y-83457235D01*
X142337560Y-83705000D01*
X138557000Y-83705000D01*
X138557000Y-81280000D01*
X138547333Y-81231399D01*
X138519803Y-81190197D01*
X138478601Y-81162667D01*
X138430000Y-81153000D01*
X137992657Y-81153000D01*
X138344320Y-80801337D01*
X138557000Y-80287881D01*
X138557000Y-79732119D01*
X138344320Y-79218663D01*
X137992657Y-78867000D01*
X138430000Y-78867000D01*
X138478601Y-78857333D01*
X138519803Y-78829803D01*
X138547333Y-78788601D01*
X138557000Y-78740000D01*
X138557000Y-78232000D01*
X144050924Y-78232000D01*
X144023783Y-78243242D01*
X144023783Y-78243242D01*
G37*
X144023783Y-78243242D02*
X143648242Y-78618783D01*
X143445000Y-79109452D01*
X143445000Y-79640548D01*
X143648242Y-80131217D01*
X144023783Y-80506758D01*
X144514452Y-80710000D01*
X145045548Y-80710000D01*
X145536217Y-80506758D01*
X145911758Y-80131217D01*
X146115000Y-79640548D01*
X146115000Y-79109452D01*
X145911758Y-78618783D01*
X145536217Y-78243242D01*
X145509076Y-78232000D01*
X151707685Y-78232000D01*
X151437519Y-78412519D01*
X151142458Y-78854109D01*
X151038846Y-79375000D01*
X151142458Y-79895891D01*
X151437519Y-80337481D01*
X151879109Y-80632542D01*
X152268515Y-80710000D01*
X152531485Y-80710000D01*
X152920891Y-80632542D01*
X153362481Y-80337481D01*
X153380843Y-80310000D01*
X154552711Y-80310000D01*
X156545000Y-82302290D01*
X156545001Y-88807910D01*
X156526683Y-88900000D01*
X156599250Y-89264818D01*
X156599251Y-89264819D01*
X156805904Y-89574097D01*
X156883970Y-89626259D01*
X158023741Y-90766031D01*
X158075903Y-90844097D01*
X158385181Y-91050750D01*
X158623000Y-91098055D01*
X158623000Y-91440000D01*
X158632667Y-91488601D01*
X158660197Y-91529803D01*
X158701399Y-91557333D01*
X158750000Y-91567000D01*
X159266084Y-91567000D01*
X159219392Y-91729787D01*
X160020000Y-92530395D01*
X160034143Y-92516253D01*
X160213748Y-92695858D01*
X160199605Y-92710000D01*
X160213748Y-92724143D01*
X160034143Y-92903748D01*
X160020000Y-92889605D01*
X159219392Y-93690213D01*
X159266084Y-93853000D01*
X158750000Y-93853000D01*
X158701399Y-93862667D01*
X158660197Y-93890197D01*
X158632667Y-93931399D01*
X158623000Y-93980000D01*
X158623000Y-109220000D01*
X158632667Y-109268601D01*
X158660197Y-109309803D01*
X158701399Y-109337333D01*
X158750000Y-109347000D01*
X159266084Y-109347000D01*
X159219392Y-109509787D01*
X160020000Y-110310395D01*
X160034143Y-110296253D01*
X160213748Y-110475858D01*
X160199605Y-110490000D01*
X160213748Y-110504143D01*
X160034143Y-110683748D01*
X160020000Y-110669605D01*
X159219392Y-111470213D01*
X159266084Y-111633000D01*
X154632308Y-111633000D01*
X154740625Y-111560625D01*
X155068839Y-111069418D01*
X155184092Y-110490000D01*
X155142779Y-110282302D01*
X158610856Y-110282302D01*
X158638638Y-110837368D01*
X158797603Y-111221143D01*
X159039787Y-111290608D01*
X159840395Y-110490000D01*
X159039787Y-109689392D01*
X158797603Y-109758857D01*
X158610856Y-110282302D01*
X155142779Y-110282302D01*
X155068839Y-109910582D01*
X154740625Y-109419375D01*
X154718967Y-109404904D01*
X154879698Y-109338327D01*
X155058327Y-109159699D01*
X155155000Y-108926310D01*
X155155000Y-108235750D01*
X154996250Y-108077000D01*
X153797000Y-108077000D01*
X153797000Y-108097000D01*
X153543000Y-108097000D01*
X153543000Y-108077000D01*
X152343750Y-108077000D01*
X152185000Y-108235750D01*
X152185000Y-108926310D01*
X152281673Y-109159699D01*
X152460302Y-109338327D01*
X152621033Y-109404904D01*
X152599375Y-109419375D01*
X152271161Y-109910582D01*
X152155908Y-110490000D01*
X152271161Y-111069418D01*
X152599375Y-111560625D01*
X152707692Y-111633000D01*
X149525000Y-111633000D01*
X149525000Y-106973690D01*
X152185000Y-106973690D01*
X152185000Y-107664250D01*
X152343750Y-107823000D01*
X153543000Y-107823000D01*
X153543000Y-106623750D01*
X153797000Y-106623750D01*
X153797000Y-107823000D01*
X154996250Y-107823000D01*
X155155000Y-107664250D01*
X155155000Y-106973690D01*
X155058327Y-106740301D01*
X154879698Y-106561673D01*
X154646309Y-106465000D01*
X153955750Y-106465000D01*
X153797000Y-106623750D01*
X153543000Y-106623750D01*
X153384250Y-106465000D01*
X152693691Y-106465000D01*
X152460302Y-106561673D01*
X152281673Y-106740301D01*
X152185000Y-106973690D01*
X149525000Y-106973690D01*
X149525000Y-102535275D01*
X152914331Y-102535275D01*
X152976169Y-102771042D01*
X153477122Y-102947419D01*
X154007440Y-102918664D01*
X154363831Y-102771042D01*
X154425669Y-102535275D01*
X153670000Y-101779605D01*
X152914331Y-102535275D01*
X149525000Y-102535275D01*
X149525000Y-101407122D01*
X152322581Y-101407122D01*
X152351336Y-101937440D01*
X152498958Y-102293831D01*
X152734725Y-102355669D01*
X153490395Y-101600000D01*
X153849605Y-101600000D01*
X154605275Y-102355669D01*
X154841042Y-102293831D01*
X155017419Y-101792878D01*
X154988664Y-101262560D01*
X154841042Y-100906169D01*
X154605275Y-100844331D01*
X153849605Y-101600000D01*
X153490395Y-101600000D01*
X152734725Y-100844331D01*
X152498958Y-100906169D01*
X152322581Y-101407122D01*
X149525000Y-101407122D01*
X149525000Y-100664725D01*
X152914331Y-100664725D01*
X153670000Y-101420395D01*
X154425669Y-100664725D01*
X154363831Y-100428958D01*
X153862878Y-100252581D01*
X153332560Y-100281336D01*
X152976169Y-100428958D01*
X152914331Y-100664725D01*
X149525000Y-100664725D01*
X149525000Y-99885000D01*
X150251031Y-99885000D01*
X150727945Y-99790136D01*
X151268769Y-99428769D01*
X151630136Y-98887945D01*
X151757031Y-98250000D01*
X151630136Y-97612055D01*
X151268769Y-97071231D01*
X150727945Y-96709864D01*
X150251031Y-96615000D01*
X146928969Y-96615000D01*
X146452055Y-96709864D01*
X145911231Y-97071231D01*
X145549864Y-97612055D01*
X145422969Y-98250000D01*
X145549864Y-98887945D01*
X145911231Y-99428769D01*
X146452055Y-99790136D01*
X146928969Y-99885000D01*
X147655000Y-99885000D01*
X147655001Y-111633000D01*
X144472308Y-111633000D01*
X144580625Y-111560625D01*
X144908839Y-111069418D01*
X145024092Y-110490000D01*
X144908839Y-109910582D01*
X144580625Y-109419375D01*
X144558967Y-109404904D01*
X144719698Y-109338327D01*
X144898327Y-109159699D01*
X144995000Y-108926310D01*
X144995000Y-108235750D01*
X144836250Y-108077000D01*
X143637000Y-108077000D01*
X143637000Y-108097000D01*
X143383000Y-108097000D01*
X143383000Y-108077000D01*
X142183750Y-108077000D01*
X142025000Y-108235750D01*
X142025000Y-108926310D01*
X142121673Y-109159699D01*
X142300302Y-109338327D01*
X142461033Y-109404904D01*
X142439375Y-109419375D01*
X142111161Y-109910582D01*
X141995908Y-110490000D01*
X142111161Y-111069418D01*
X142439375Y-111560625D01*
X142547692Y-111633000D01*
X137913916Y-111633000D01*
X137960608Y-111470213D01*
X137160000Y-110669605D01*
X137145858Y-110683748D01*
X136966253Y-110504143D01*
X136980395Y-110490000D01*
X137339605Y-110490000D01*
X138140213Y-111290608D01*
X138382397Y-111221143D01*
X138569144Y-110697698D01*
X138541362Y-110142632D01*
X138382397Y-109758857D01*
X138140213Y-109689392D01*
X137339605Y-110490000D01*
X136980395Y-110490000D01*
X136966253Y-110475858D01*
X137145858Y-110296253D01*
X137160000Y-110310395D01*
X137960608Y-109509787D01*
X137913916Y-109347000D01*
X138430000Y-109347000D01*
X138478601Y-109337333D01*
X138519803Y-109309803D01*
X138547333Y-109268601D01*
X138557000Y-109220000D01*
X138557000Y-106973690D01*
X142025000Y-106973690D01*
X142025000Y-107664250D01*
X142183750Y-107823000D01*
X143383000Y-107823000D01*
X143383000Y-106623750D01*
X143637000Y-106623750D01*
X143637000Y-107823000D01*
X144836250Y-107823000D01*
X144995000Y-107664250D01*
X144995000Y-106973690D01*
X144898327Y-106740301D01*
X144719698Y-106561673D01*
X144486309Y-106465000D01*
X143795750Y-106465000D01*
X143637000Y-106623750D01*
X143383000Y-106623750D01*
X143224250Y-106465000D01*
X142533691Y-106465000D01*
X142300302Y-106561673D01*
X142121673Y-106740301D01*
X142025000Y-106973690D01*
X138557000Y-106973690D01*
X138557000Y-102535275D01*
X142754331Y-102535275D01*
X142816169Y-102771042D01*
X143317122Y-102947419D01*
X143847440Y-102918664D01*
X144203831Y-102771042D01*
X144265669Y-102535275D01*
X143510000Y-101779605D01*
X142754331Y-102535275D01*
X138557000Y-102535275D01*
X138557000Y-101600000D01*
X138547333Y-101551399D01*
X138519803Y-101510197D01*
X138478601Y-101482667D01*
X138430000Y-101473000D01*
X137913916Y-101473000D01*
X137932811Y-101407122D01*
X142162581Y-101407122D01*
X142191336Y-101937440D01*
X142338958Y-102293831D01*
X142574725Y-102355669D01*
X143330395Y-101600000D01*
X143689605Y-101600000D01*
X144445275Y-102355669D01*
X144681042Y-102293831D01*
X144857419Y-101792878D01*
X144828664Y-101262560D01*
X144681042Y-100906169D01*
X144445275Y-100844331D01*
X143689605Y-101600000D01*
X143330395Y-101600000D01*
X142574725Y-100844331D01*
X142338958Y-100906169D01*
X142162581Y-101407122D01*
X137932811Y-101407122D01*
X137960608Y-101310213D01*
X137160000Y-100509605D01*
X137145858Y-100523748D01*
X136966253Y-100344143D01*
X136980395Y-100330000D01*
X137339605Y-100330000D01*
X138140213Y-101130608D01*
X138382397Y-101061143D01*
X138523825Y-100664725D01*
X142754331Y-100664725D01*
X143510000Y-101420395D01*
X144265669Y-100664725D01*
X144203831Y-100428958D01*
X143702878Y-100252581D01*
X143172560Y-100281336D01*
X142816169Y-100428958D01*
X142754331Y-100664725D01*
X138523825Y-100664725D01*
X138569144Y-100537698D01*
X138541362Y-99982632D01*
X138382397Y-99598857D01*
X138140213Y-99529392D01*
X137339605Y-100330000D01*
X136980395Y-100330000D01*
X136966253Y-100315858D01*
X137145858Y-100136253D01*
X137160000Y-100150395D01*
X137960608Y-99349787D01*
X137913916Y-99187000D01*
X138430000Y-99187000D01*
X138478601Y-99177333D01*
X138519803Y-99149803D01*
X138547333Y-99108601D01*
X138557000Y-99060000D01*
X138557000Y-93980000D01*
X142148846Y-93980000D01*
X142252458Y-94500891D01*
X142547519Y-94942481D01*
X142989109Y-95237542D01*
X143378515Y-95315000D01*
X143641485Y-95315000D01*
X144030891Y-95237542D01*
X144472481Y-94942481D01*
X144767542Y-94500891D01*
X144871154Y-93980000D01*
X144767542Y-93459109D01*
X144547929Y-93130434D01*
X145499876Y-93130434D01*
X145530856Y-93258355D01*
X145844078Y-93816317D01*
X146346980Y-94211942D01*
X146963000Y-94385000D01*
X148463000Y-94385000D01*
X148463000Y-92877000D01*
X148717000Y-92877000D01*
X148717000Y-94385000D01*
X150217000Y-94385000D01*
X150833020Y-94211942D01*
X151127854Y-93980000D01*
X152308846Y-93980000D01*
X152412458Y-94500891D01*
X152707519Y-94942481D01*
X153149109Y-95237542D01*
X153538515Y-95315000D01*
X153801485Y-95315000D01*
X154190891Y-95237542D01*
X154632481Y-94942481D01*
X154927542Y-94500891D01*
X155031154Y-93980000D01*
X154927542Y-93459109D01*
X154632481Y-93017519D01*
X154190891Y-92722458D01*
X153801485Y-92645000D01*
X153538515Y-92645000D01*
X153149109Y-92722458D01*
X152707519Y-93017519D01*
X152412458Y-93459109D01*
X152308846Y-93980000D01*
X151127854Y-93980000D01*
X151335922Y-93816317D01*
X151649144Y-93258355D01*
X151680124Y-93130434D01*
X151560777Y-92877000D01*
X148717000Y-92877000D01*
X148463000Y-92877000D01*
X145619223Y-92877000D01*
X145499876Y-93130434D01*
X144547929Y-93130434D01*
X144472481Y-93017519D01*
X144030891Y-92722458D01*
X143641485Y-92645000D01*
X143378515Y-92645000D01*
X142989109Y-92722458D01*
X142547519Y-93017519D01*
X142252458Y-93459109D01*
X142148846Y-93980000D01*
X138557000Y-93980000D01*
X138557000Y-92369566D01*
X145499876Y-92369566D01*
X145619223Y-92623000D01*
X148463000Y-92623000D01*
X148463000Y-91115000D01*
X148717000Y-91115000D01*
X148717000Y-92623000D01*
X151560777Y-92623000D01*
X151617616Y-92502302D01*
X158610856Y-92502302D01*
X158638638Y-93057368D01*
X158797603Y-93441143D01*
X159039787Y-93510608D01*
X159840395Y-92710000D01*
X159039787Y-91909392D01*
X158797603Y-91978857D01*
X158610856Y-92502302D01*
X151617616Y-92502302D01*
X151680124Y-92369566D01*
X151649144Y-92241645D01*
X151335922Y-91683683D01*
X150833020Y-91288058D01*
X150217000Y-91115000D01*
X148717000Y-91115000D01*
X148463000Y-91115000D01*
X146963000Y-91115000D01*
X146346980Y-91288058D01*
X145844078Y-91683683D01*
X145530856Y-92241645D01*
X145499876Y-92369566D01*
X138557000Y-92369566D01*
X138557000Y-88614561D01*
X140845000Y-88614561D01*
X140845000Y-89185439D01*
X141063466Y-89712862D01*
X141467138Y-90116534D01*
X141994561Y-90335000D01*
X142565439Y-90335000D01*
X143092862Y-90116534D01*
X143496534Y-89712862D01*
X143530000Y-89632068D01*
X143563466Y-89712862D01*
X143967138Y-90116534D01*
X144494561Y-90335000D01*
X145065439Y-90335000D01*
X145592862Y-90116534D01*
X145996534Y-89712862D01*
X146215000Y-89185439D01*
X146215000Y-88614561D01*
X150965000Y-88614561D01*
X150965000Y-89185439D01*
X151183466Y-89712862D01*
X151587138Y-90116534D01*
X152114561Y-90335000D01*
X152685439Y-90335000D01*
X153212862Y-90116534D01*
X153616534Y-89712862D01*
X153650000Y-89632068D01*
X153683466Y-89712862D01*
X154087138Y-90116534D01*
X154614561Y-90335000D01*
X155185439Y-90335000D01*
X155712862Y-90116534D01*
X156116534Y-89712862D01*
X156335000Y-89185439D01*
X156335000Y-88614561D01*
X156116534Y-88087138D01*
X155712862Y-87683466D01*
X155185439Y-87465000D01*
X154614561Y-87465000D01*
X154087138Y-87683466D01*
X153683466Y-88087138D01*
X153650000Y-88167932D01*
X153616534Y-88087138D01*
X153212862Y-87683466D01*
X152685439Y-87465000D01*
X152114561Y-87465000D01*
X151587138Y-87683466D01*
X151183466Y-88087138D01*
X150965000Y-88614561D01*
X146215000Y-88614561D01*
X145996534Y-88087138D01*
X145592862Y-87683466D01*
X145065439Y-87465000D01*
X144494561Y-87465000D01*
X143967138Y-87683466D01*
X143563466Y-88087138D01*
X143530000Y-88167932D01*
X143496534Y-88087138D01*
X143092862Y-87683466D01*
X142565439Y-87465000D01*
X141994561Y-87465000D01*
X141467138Y-87683466D01*
X141063466Y-88087138D01*
X140845000Y-88614561D01*
X138557000Y-88614561D01*
X138557000Y-83705000D01*
X142337560Y-83705000D01*
X142337560Y-85205000D01*
X142386843Y-85452765D01*
X142527191Y-85662809D01*
X142737235Y-85803157D01*
X142985000Y-85852440D01*
X144035000Y-85852440D01*
X144282765Y-85803157D01*
X144328134Y-85772842D01*
X144780000Y-85862725D01*
X145232609Y-85772695D01*
X145424996Y-85644146D01*
X145682664Y-85790266D01*
X145744190Y-85798964D01*
X145923000Y-85673163D01*
X145923000Y-84879709D01*
X145940000Y-84794245D01*
X145940000Y-84582000D01*
X146177000Y-84582000D01*
X146177000Y-85673163D01*
X146355810Y-85798964D01*
X146417336Y-85790266D01*
X146814255Y-85565179D01*
X147094823Y-85205331D01*
X147216326Y-84765506D01*
X147056593Y-84582000D01*
X146177000Y-84582000D01*
X145940000Y-84582000D01*
X145940000Y-84115754D01*
X145923000Y-84030290D01*
X145923000Y-83236837D01*
X146177000Y-83236837D01*
X146177000Y-84328000D01*
X147056593Y-84328000D01*
X147216326Y-84144494D01*
X147094915Y-83705000D01*
X149957560Y-83705000D01*
X149957560Y-85205000D01*
X150006843Y-85452765D01*
X150147191Y-85662809D01*
X150357235Y-85803157D01*
X150605000Y-85852440D01*
X151655000Y-85852440D01*
X151902765Y-85803157D01*
X151948134Y-85772842D01*
X152400000Y-85862725D01*
X152852609Y-85772695D01*
X153044996Y-85644146D01*
X153302664Y-85790266D01*
X153364190Y-85798964D01*
X153543000Y-85673163D01*
X153543000Y-84879709D01*
X153560000Y-84794245D01*
X153560000Y-84582000D01*
X153797000Y-84582000D01*
X153797000Y-85673163D01*
X153975810Y-85798964D01*
X154037336Y-85790266D01*
X154434255Y-85565179D01*
X154714823Y-85205331D01*
X154836326Y-84765506D01*
X154676593Y-84582000D01*
X153797000Y-84582000D01*
X153560000Y-84582000D01*
X153560000Y-84115754D01*
X153543000Y-84030290D01*
X153543000Y-83236837D01*
X153797000Y-83236837D01*
X153797000Y-84328000D01*
X154676593Y-84328000D01*
X154836326Y-84144494D01*
X154714823Y-83704669D01*
X154434255Y-83344821D01*
X154037336Y-83119734D01*
X153975810Y-83111036D01*
X153797000Y-83236837D01*
X153543000Y-83236837D01*
X153364190Y-83111036D01*
X153302664Y-83119734D01*
X153044996Y-83265854D01*
X152852608Y-83137305D01*
X152400000Y-83047275D01*
X151948133Y-83137157D01*
X151902765Y-83106843D01*
X151655000Y-83057560D01*
X150605000Y-83057560D01*
X150357235Y-83106843D01*
X150147191Y-83247191D01*
X150006843Y-83457235D01*
X149957560Y-83705000D01*
X147094915Y-83705000D01*
X147094823Y-83704669D01*
X146814255Y-83344821D01*
X146417336Y-83119734D01*
X146355810Y-83111036D01*
X146177000Y-83236837D01*
X145923000Y-83236837D01*
X145744190Y-83111036D01*
X145682664Y-83119734D01*
X145424996Y-83265854D01*
X145232608Y-83137305D01*
X144780000Y-83047275D01*
X144328133Y-83137157D01*
X144282765Y-83106843D01*
X144035000Y-83057560D01*
X142985000Y-83057560D01*
X142737235Y-83106843D01*
X142527191Y-83247191D01*
X142386843Y-83457235D01*
X142337560Y-83705000D01*
X138557000Y-83705000D01*
X138557000Y-81280000D01*
X138547333Y-81231399D01*
X138519803Y-81190197D01*
X138478601Y-81162667D01*
X138430000Y-81153000D01*
X137992657Y-81153000D01*
X138344320Y-80801337D01*
X138557000Y-80287881D01*
X138557000Y-79732119D01*
X138344320Y-79218663D01*
X137992657Y-78867000D01*
X138430000Y-78867000D01*
X138478601Y-78857333D01*
X138519803Y-78829803D01*
X138547333Y-78788601D01*
X138557000Y-78740000D01*
X138557000Y-78232000D01*
X144050924Y-78232000D01*
X144023783Y-78243242D01*
G04 #@! TD*
M02*
