G04 #@! TF.GenerationSoftware,KiCad,Pcbnew,(5.0.1)-4*
G04 #@! TF.CreationDate,2018-12-08T00:24:21+01:00*
G04 #@! TF.ProjectId,Motion Detector,4D6F74696F6E204465746563746F722E,rev?*
G04 #@! TF.SameCoordinates,Original*
G04 #@! TF.FileFunction,Legend,Top*
G04 #@! TF.FilePolarity,Positive*
%FSLAX46Y46*%
G04 Gerber Fmt 4.6, Leading zero omitted, Abs format (unit mm)*
G04 Created by KiCad (PCBNEW (5.0.1)-4) date 08-Dec-18 12:24:21 AM*
%MOMM*%
%LPD*%
G01*
G04 APERTURE LIST*
%ADD10C,0.120000*%
%ADD11C,0.150000*%
G04 APERTURE END LIST*
D10*
G04 #@! TO.C,C1*
X153021000Y-89820000D02*
X154279000Y-89820000D01*
X153021000Y-87980000D02*
X154279000Y-87980000D01*
G04 #@! TO.C,C2*
X144159000Y-87980000D02*
X142901000Y-87980000D01*
X144159000Y-89820000D02*
X142901000Y-89820000D01*
G04 #@! TO.C,D1*
X151310000Y-77340000D02*
X151310000Y-77670000D01*
X151310000Y-77670000D02*
X145870000Y-77670000D01*
X145870000Y-77670000D02*
X145870000Y-77340000D01*
X151310000Y-75060000D02*
X151310000Y-74730000D01*
X151310000Y-74730000D02*
X145870000Y-74730000D01*
X145870000Y-74730000D02*
X145870000Y-75060000D01*
X150410000Y-77670000D02*
X150410000Y-74730000D01*
X150290000Y-77670000D02*
X150290000Y-74730000D01*
X150530000Y-77670000D02*
X150530000Y-74730000D01*
G04 #@! TO.C,Q1*
X150600000Y-86305000D02*
X154200000Y-86305000D01*
X150561522Y-86293478D02*
G75*
G02X152400000Y-81855000I1838478J1838478D01*
G01*
X154238478Y-86293478D02*
G75*
G03X152400000Y-81855000I-1838478J1838478D01*
G01*
G04 #@! TO.C,Q2*
X146618478Y-86293478D02*
G75*
G03X144780000Y-81855000I-1838478J1838478D01*
G01*
X142941522Y-86293478D02*
G75*
G02X144780000Y-81855000I1838478J1838478D01*
G01*
X142980000Y-86305000D02*
X146580000Y-86305000D01*
G04 #@! TO.C,R1*
X153670000Y-94920000D02*
X153670000Y-95870000D01*
X153670000Y-100660000D02*
X153670000Y-99710000D01*
X152750000Y-95870000D02*
X152750000Y-99710000D01*
X154590000Y-95870000D02*
X152750000Y-95870000D01*
X154590000Y-99710000D02*
X154590000Y-95870000D01*
X152750000Y-99710000D02*
X154590000Y-99710000D01*
G04 #@! TO.C,R2*
X142590000Y-99710000D02*
X144430000Y-99710000D01*
X144430000Y-99710000D02*
X144430000Y-95870000D01*
X144430000Y-95870000D02*
X142590000Y-95870000D01*
X142590000Y-95870000D02*
X142590000Y-99710000D01*
X143510000Y-100660000D02*
X143510000Y-99710000D01*
X143510000Y-94920000D02*
X143510000Y-95870000D01*
G04 #@! TO.C,R3*
X146670000Y-78455000D02*
X146670000Y-80295000D01*
X146670000Y-80295000D02*
X150510000Y-80295000D01*
X150510000Y-80295000D02*
X150510000Y-78455000D01*
X150510000Y-78455000D02*
X146670000Y-78455000D01*
X145720000Y-79375000D02*
X146670000Y-79375000D01*
X151460000Y-79375000D02*
X150510000Y-79375000D01*
D11*
G04 #@! TO.C,U1*
X135890000Y-73660000D02*
G75*
G02X138430000Y-71120000I2540000J0D01*
G01*
X158750000Y-71120000D02*
G75*
G02X161290000Y-73660000I0J-2540000D01*
G01*
X161290000Y-116840000D02*
G75*
G02X158750000Y-119380000I-2540000J0D01*
G01*
X138430000Y-119380000D02*
G75*
G02X135890000Y-116840000I0J2540000D01*
G01*
X138430000Y-71120000D02*
X158750000Y-71120000D01*
X161290000Y-73660000D02*
X161290000Y-116840000D01*
X158750000Y-119380000D02*
X138430000Y-119380000D01*
X135890000Y-116840000D02*
X135890000Y-73660000D01*
X153670000Y-120650000D02*
X153670000Y-115570000D01*
X153670000Y-115570000D02*
X143510000Y-115570000D01*
X143510000Y-115570000D02*
X143510000Y-120650000D01*
X143510000Y-120650000D02*
X153670000Y-120650000D01*
X140477813Y-116840000D02*
G75*
G03X140477813Y-116840000I-2047813J0D01*
G01*
X160782000Y-116840000D02*
G75*
G03X160782000Y-116840000I-2047813J0D01*
G01*
X160782000Y-73660000D02*
G75*
G03X160782000Y-73660000I-2047813J0D01*
G01*
X140477813Y-73660000D02*
G75*
G03X140477813Y-73660000I-2047813J0D01*
G01*
G04 #@! TO.C,C1*
X153233333Y-90994666D02*
X152833333Y-90994666D01*
X153033333Y-90994666D02*
X153033333Y-90294666D01*
X152966666Y-90394666D01*
X152900000Y-90461333D01*
X152833333Y-90494666D01*
X153833333Y-90528000D02*
X153833333Y-90994666D01*
X153533333Y-90528000D02*
X153533333Y-90894666D01*
X153566666Y-90961333D01*
X153633333Y-90994666D01*
X153733333Y-90994666D01*
X153800000Y-90961333D01*
X153833333Y-90928000D01*
X154400000Y-90628000D02*
X154166666Y-90628000D01*
X154166666Y-90994666D02*
X154166666Y-90294666D01*
X154500000Y-90294666D01*
G04 #@! TO.C,C2*
X143093333Y-90994666D02*
X142693333Y-90994666D01*
X142893333Y-90994666D02*
X142893333Y-90294666D01*
X142826666Y-90394666D01*
X142760000Y-90461333D01*
X142693333Y-90494666D01*
X143693333Y-90528000D02*
X143693333Y-90994666D01*
X143393333Y-90528000D02*
X143393333Y-90894666D01*
X143426666Y-90961333D01*
X143493333Y-90994666D01*
X143593333Y-90994666D01*
X143660000Y-90961333D01*
X143693333Y-90928000D01*
X144260000Y-90628000D02*
X144026666Y-90628000D01*
X144026666Y-90994666D02*
X144026666Y-90294666D01*
X144360000Y-90294666D01*
G04 #@! TO.C,D1*
X152138095Y-78552380D02*
X152138095Y-77552380D01*
X152709523Y-78552380D02*
X152280952Y-77980952D01*
X152709523Y-77552380D02*
X152138095Y-78123809D01*
G04 #@! TO.C,Q1*
X151100000Y-86818000D02*
X151200000Y-86851333D01*
X151233333Y-86884666D01*
X151266666Y-86951333D01*
X151266666Y-87051333D01*
X151233333Y-87118000D01*
X151200000Y-87151333D01*
X151133333Y-87184666D01*
X150866666Y-87184666D01*
X150866666Y-86484666D01*
X151100000Y-86484666D01*
X151166666Y-86518000D01*
X151200000Y-86551333D01*
X151233333Y-86618000D01*
X151233333Y-86684666D01*
X151200000Y-86751333D01*
X151166666Y-86784666D01*
X151100000Y-86818000D01*
X150866666Y-86818000D01*
X151966666Y-87118000D02*
X151933333Y-87151333D01*
X151833333Y-87184666D01*
X151766666Y-87184666D01*
X151666666Y-87151333D01*
X151600000Y-87084666D01*
X151566666Y-87018000D01*
X151533333Y-86884666D01*
X151533333Y-86784666D01*
X151566666Y-86651333D01*
X151600000Y-86584666D01*
X151666666Y-86518000D01*
X151766666Y-86484666D01*
X151833333Y-86484666D01*
X151933333Y-86518000D01*
X151966666Y-86551333D01*
X152600000Y-86484666D02*
X152266666Y-86484666D01*
X152233333Y-86818000D01*
X152266666Y-86784666D01*
X152333333Y-86751333D01*
X152500000Y-86751333D01*
X152566666Y-86784666D01*
X152600000Y-86818000D01*
X152633333Y-86884666D01*
X152633333Y-87051333D01*
X152600000Y-87118000D01*
X152566666Y-87151333D01*
X152500000Y-87184666D01*
X152333333Y-87184666D01*
X152266666Y-87151333D01*
X152233333Y-87118000D01*
X153233333Y-86718000D02*
X153233333Y-87184666D01*
X153066666Y-86451333D02*
X152900000Y-86951333D01*
X153333333Y-86951333D01*
X153533333Y-86484666D02*
X154000000Y-86484666D01*
X153700000Y-87184666D01*
G04 #@! TO.C,Q2*
X143480000Y-86818000D02*
X143580000Y-86851333D01*
X143613333Y-86884666D01*
X143646666Y-86951333D01*
X143646666Y-87051333D01*
X143613333Y-87118000D01*
X143580000Y-87151333D01*
X143513333Y-87184666D01*
X143246666Y-87184666D01*
X143246666Y-86484666D01*
X143480000Y-86484666D01*
X143546666Y-86518000D01*
X143580000Y-86551333D01*
X143613333Y-86618000D01*
X143613333Y-86684666D01*
X143580000Y-86751333D01*
X143546666Y-86784666D01*
X143480000Y-86818000D01*
X143246666Y-86818000D01*
X144346666Y-87118000D02*
X144313333Y-87151333D01*
X144213333Y-87184666D01*
X144146666Y-87184666D01*
X144046666Y-87151333D01*
X143980000Y-87084666D01*
X143946666Y-87018000D01*
X143913333Y-86884666D01*
X143913333Y-86784666D01*
X143946666Y-86651333D01*
X143980000Y-86584666D01*
X144046666Y-86518000D01*
X144146666Y-86484666D01*
X144213333Y-86484666D01*
X144313333Y-86518000D01*
X144346666Y-86551333D01*
X144980000Y-86484666D02*
X144646666Y-86484666D01*
X144613333Y-86818000D01*
X144646666Y-86784666D01*
X144713333Y-86751333D01*
X144880000Y-86751333D01*
X144946666Y-86784666D01*
X144980000Y-86818000D01*
X145013333Y-86884666D01*
X145013333Y-87051333D01*
X144980000Y-87118000D01*
X144946666Y-87151333D01*
X144880000Y-87184666D01*
X144713333Y-87184666D01*
X144646666Y-87151333D01*
X144613333Y-87118000D01*
X145613333Y-86718000D02*
X145613333Y-87184666D01*
X145446666Y-86451333D02*
X145280000Y-86951333D01*
X145713333Y-86951333D01*
X145913333Y-86484666D02*
X146380000Y-86484666D01*
X146080000Y-87184666D01*
G04 #@! TO.C,R1*
X153317379Y-97956666D02*
X153317379Y-98432857D01*
X153793570Y-98480476D01*
X153745951Y-98432857D01*
X153698332Y-98337619D01*
X153698332Y-98099523D01*
X153745951Y-98004285D01*
X153793570Y-97956666D01*
X153888808Y-97909047D01*
X154126903Y-97909047D01*
X154222141Y-97956666D01*
X154269760Y-98004285D01*
X154317379Y-98099523D01*
X154317379Y-98337619D01*
X154269760Y-98432857D01*
X154222141Y-98480476D01*
X154317379Y-97480476D02*
X153317379Y-97480476D01*
X153936427Y-97385238D02*
X154317379Y-97099523D01*
X153650713Y-97099523D02*
X154031665Y-97480476D01*
G04 #@! TO.C,R2*
X142962380Y-97956666D02*
X142962380Y-98432857D01*
X143438571Y-98480476D01*
X143390952Y-98432857D01*
X143343333Y-98337619D01*
X143343333Y-98099523D01*
X143390952Y-98004285D01*
X143438571Y-97956666D01*
X143533809Y-97909047D01*
X143771904Y-97909047D01*
X143867142Y-97956666D01*
X143914761Y-98004285D01*
X143962380Y-98099523D01*
X143962380Y-98337619D01*
X143914761Y-98432857D01*
X143867142Y-98480476D01*
X143962380Y-97480476D02*
X142962380Y-97480476D01*
X143581428Y-97385238D02*
X143962380Y-97099523D01*
X143295714Y-97099523D02*
X143676666Y-97480476D01*
G04 #@! TO.C,R3*
X147994761Y-79827380D02*
X147423333Y-79827380D01*
X147709047Y-79827380D02*
X147709047Y-78827380D01*
X147613809Y-78970238D01*
X147518571Y-79065476D01*
X147423333Y-79113095D01*
X148613809Y-78827380D02*
X148709047Y-78827380D01*
X148804285Y-78875000D01*
X148851904Y-78922619D01*
X148899523Y-79017857D01*
X148947142Y-79208333D01*
X148947142Y-79446428D01*
X148899523Y-79636904D01*
X148851904Y-79732142D01*
X148804285Y-79779761D01*
X148709047Y-79827380D01*
X148613809Y-79827380D01*
X148518571Y-79779761D01*
X148470952Y-79732142D01*
X148423333Y-79636904D01*
X148375714Y-79446428D01*
X148375714Y-79208333D01*
X148423333Y-79017857D01*
X148470952Y-78922619D01*
X148518571Y-78875000D01*
X148613809Y-78827380D01*
X149375714Y-79827380D02*
X149375714Y-78827380D01*
X149470952Y-79446428D02*
X149756666Y-79827380D01*
X149756666Y-79160714D02*
X149375714Y-79541666D01*
G04 #@! TO.C,U1*
X138604761Y-112482380D02*
X138938095Y-113482380D01*
X139271428Y-112482380D01*
X139604761Y-113482380D02*
X139604761Y-112482380D01*
X140080952Y-113482380D02*
X140080952Y-112482380D01*
X140652380Y-113482380D01*
X140652380Y-112482380D01*
X139271428Y-109990000D02*
X139176190Y-109942380D01*
X139033333Y-109942380D01*
X138890476Y-109990000D01*
X138795238Y-110085238D01*
X138747619Y-110180476D01*
X138700000Y-110370952D01*
X138700000Y-110513809D01*
X138747619Y-110704285D01*
X138795238Y-110799523D01*
X138890476Y-110894761D01*
X139033333Y-110942380D01*
X139128571Y-110942380D01*
X139271428Y-110894761D01*
X139319047Y-110847142D01*
X139319047Y-110513809D01*
X139128571Y-110513809D01*
X139152380Y-108402380D02*
X138819047Y-107926190D01*
X138580952Y-108402380D02*
X138580952Y-107402380D01*
X138961904Y-107402380D01*
X139057142Y-107450000D01*
X139104761Y-107497619D01*
X139152380Y-107592857D01*
X139152380Y-107735714D01*
X139104761Y-107830952D01*
X139057142Y-107878571D01*
X138961904Y-107926190D01*
X138580952Y-107926190D01*
X139533333Y-108354761D02*
X139676190Y-108402380D01*
X139914285Y-108402380D01*
X140009523Y-108354761D01*
X140057142Y-108307142D01*
X140104761Y-108211904D01*
X140104761Y-108116666D01*
X140057142Y-108021428D01*
X140009523Y-107973809D01*
X139914285Y-107926190D01*
X139723809Y-107878571D01*
X139628571Y-107830952D01*
X139580952Y-107783333D01*
X139533333Y-107688095D01*
X139533333Y-107592857D01*
X139580952Y-107497619D01*
X139628571Y-107450000D01*
X139723809Y-107402380D01*
X139961904Y-107402380D01*
X140104761Y-107450000D01*
X140390476Y-107402380D02*
X140961904Y-107402380D01*
X140676190Y-108402380D02*
X140676190Y-107402380D01*
X138747618Y-105338571D02*
X139080952Y-105338571D01*
X139223809Y-105862380D02*
X138747618Y-105862380D01*
X138747618Y-104862380D01*
X139223809Y-104862380D01*
X139652380Y-105862380D02*
X139652380Y-104862380D01*
X140223809Y-105862380D01*
X140223809Y-104862380D01*
X138652381Y-102322380D02*
X139271428Y-102322380D01*
X138938095Y-102703333D01*
X139080952Y-102703333D01*
X139176190Y-102750952D01*
X139223809Y-102798571D01*
X139271428Y-102893809D01*
X139271428Y-103131904D01*
X139223809Y-103227142D01*
X139176190Y-103274761D01*
X139080952Y-103322380D01*
X138795238Y-103322380D01*
X138700000Y-103274761D01*
X138652381Y-103227142D01*
X139557143Y-102322380D02*
X139890476Y-103322380D01*
X140223809Y-102322380D01*
X139271428Y-99830000D02*
X139176190Y-99782380D01*
X139033333Y-99782380D01*
X138890476Y-99830000D01*
X138795238Y-99925238D01*
X138747619Y-100020476D01*
X138700000Y-100210952D01*
X138700000Y-100353809D01*
X138747619Y-100544285D01*
X138795238Y-100639523D01*
X138890476Y-100734761D01*
X139033333Y-100782380D01*
X139128571Y-100782380D01*
X139271428Y-100734761D01*
X139319047Y-100687142D01*
X139319047Y-100353809D01*
X139128571Y-100353809D01*
X138699999Y-98194761D02*
X138842856Y-98242380D01*
X139080952Y-98242380D01*
X139176190Y-98194761D01*
X139223809Y-98147142D01*
X139271428Y-98051904D01*
X139271428Y-97956666D01*
X139223809Y-97861428D01*
X139176190Y-97813809D01*
X139080952Y-97766190D01*
X138890475Y-97718571D01*
X138795237Y-97670952D01*
X138747618Y-97623333D01*
X138699999Y-97528095D01*
X138699999Y-97432857D01*
X138747618Y-97337619D01*
X138795237Y-97290000D01*
X138890475Y-97242380D01*
X139128571Y-97242380D01*
X139271428Y-97290000D01*
X139699999Y-98242380D02*
X139699999Y-97242380D01*
X140271428Y-98242380D02*
X139842856Y-97670952D01*
X140271428Y-97242380D02*
X139699999Y-97813809D01*
X138700000Y-95654761D02*
X138842857Y-95702380D01*
X139080952Y-95702380D01*
X139176190Y-95654761D01*
X139223809Y-95607142D01*
X139271428Y-95511904D01*
X139271428Y-95416666D01*
X139223809Y-95321428D01*
X139176190Y-95273809D01*
X139080952Y-95226190D01*
X138890476Y-95178571D01*
X138795238Y-95130952D01*
X138747619Y-95083333D01*
X138700000Y-94988095D01*
X138700000Y-94892857D01*
X138747619Y-94797619D01*
X138795238Y-94750000D01*
X138890476Y-94702380D01*
X139128571Y-94702380D01*
X139271428Y-94750000D01*
X139890476Y-94702380D02*
X140080952Y-94702380D01*
X140176190Y-94750000D01*
X140271428Y-94845238D01*
X140319047Y-95035714D01*
X140319047Y-95369047D01*
X140271428Y-95559523D01*
X140176190Y-95654761D01*
X140080952Y-95702380D01*
X139890476Y-95702380D01*
X139795238Y-95654761D01*
X139700000Y-95559523D01*
X139652381Y-95369047D01*
X139652381Y-95035714D01*
X139700000Y-94845238D01*
X139795238Y-94750000D01*
X139890476Y-94702380D01*
X138699999Y-93114761D02*
X138842856Y-93162380D01*
X139080952Y-93162380D01*
X139176190Y-93114761D01*
X139223809Y-93067142D01*
X139271428Y-92971904D01*
X139271428Y-92876666D01*
X139223809Y-92781428D01*
X139176190Y-92733809D01*
X139080952Y-92686190D01*
X138890475Y-92638571D01*
X138795237Y-92590952D01*
X138747618Y-92543333D01*
X138699999Y-92448095D01*
X138699999Y-92352857D01*
X138747618Y-92257619D01*
X138795237Y-92210000D01*
X138890475Y-92162380D01*
X139128571Y-92162380D01*
X139271428Y-92210000D01*
X140271428Y-93067142D02*
X140223809Y-93114761D01*
X140080952Y-93162380D01*
X139985714Y-93162380D01*
X139842856Y-93114761D01*
X139747618Y-93019523D01*
X139699999Y-92924285D01*
X139652380Y-92733809D01*
X139652380Y-92590952D01*
X139699999Y-92400476D01*
X139747618Y-92305238D01*
X139842856Y-92210000D01*
X139985714Y-92162380D01*
X140080952Y-92162380D01*
X140223809Y-92210000D01*
X140271428Y-92257619D01*
X138700000Y-90574761D02*
X138842857Y-90622380D01*
X139080952Y-90622380D01*
X139176190Y-90574761D01*
X139223809Y-90527142D01*
X139271428Y-90431904D01*
X139271428Y-90336666D01*
X139223809Y-90241428D01*
X139176190Y-90193809D01*
X139080952Y-90146190D01*
X138890476Y-90098571D01*
X138795238Y-90050952D01*
X138747619Y-90003333D01*
X138700000Y-89908095D01*
X138700000Y-89812857D01*
X138747619Y-89717619D01*
X138795238Y-89670000D01*
X138890476Y-89622380D01*
X139128571Y-89622380D01*
X139271428Y-89670000D01*
X140223809Y-90622380D02*
X139652381Y-90622380D01*
X139938095Y-90622380D02*
X139938095Y-89622380D01*
X139842857Y-89765238D01*
X139747619Y-89860476D01*
X139652381Y-89908095D01*
X138700000Y-88034761D02*
X138842857Y-88082380D01*
X139080952Y-88082380D01*
X139176190Y-88034761D01*
X139223809Y-87987142D01*
X139271428Y-87891904D01*
X139271428Y-87796666D01*
X139223809Y-87701428D01*
X139176190Y-87653809D01*
X139080952Y-87606190D01*
X138890476Y-87558571D01*
X138795238Y-87510952D01*
X138747619Y-87463333D01*
X138700000Y-87368095D01*
X138700000Y-87272857D01*
X138747619Y-87177619D01*
X138795238Y-87130000D01*
X138890476Y-87082380D01*
X139128571Y-87082380D01*
X139271428Y-87130000D01*
X139652381Y-87177619D02*
X139700000Y-87130000D01*
X139795238Y-87082380D01*
X140033333Y-87082380D01*
X140128571Y-87130000D01*
X140176190Y-87177619D01*
X140223809Y-87272857D01*
X140223809Y-87368095D01*
X140176190Y-87510952D01*
X139604762Y-88082380D01*
X140223809Y-88082380D01*
X138700000Y-85494761D02*
X138842857Y-85542380D01*
X139080952Y-85542380D01*
X139176190Y-85494761D01*
X139223809Y-85447142D01*
X139271428Y-85351904D01*
X139271428Y-85256666D01*
X139223809Y-85161428D01*
X139176190Y-85113809D01*
X139080952Y-85066190D01*
X138890476Y-85018571D01*
X138795238Y-84970952D01*
X138747619Y-84923333D01*
X138700000Y-84828095D01*
X138700000Y-84732857D01*
X138747619Y-84637619D01*
X138795238Y-84590000D01*
X138890476Y-84542380D01*
X139128571Y-84542380D01*
X139271428Y-84590000D01*
X139604762Y-84542380D02*
X140223809Y-84542380D01*
X139890476Y-84923333D01*
X140033333Y-84923333D01*
X140128571Y-84970952D01*
X140176190Y-85018571D01*
X140223809Y-85113809D01*
X140223809Y-85351904D01*
X140176190Y-85447142D01*
X140128571Y-85494761D01*
X140033333Y-85542380D01*
X139747619Y-85542380D01*
X139652381Y-85494761D01*
X139604762Y-85447142D01*
X138604762Y-82002380D02*
X138938095Y-83002380D01*
X139271428Y-82002380D01*
X139604762Y-82002380D02*
X139604762Y-82811904D01*
X139652381Y-82907142D01*
X139700000Y-82954761D01*
X139795238Y-83002380D01*
X139985714Y-83002380D01*
X140080952Y-82954761D01*
X140128571Y-82907142D01*
X140176190Y-82811904D01*
X140176190Y-82002380D01*
X139271428Y-79510000D02*
X139176190Y-79462380D01*
X139033333Y-79462380D01*
X138890476Y-79510000D01*
X138795238Y-79605238D01*
X138747619Y-79700476D01*
X138700000Y-79890952D01*
X138700000Y-80033809D01*
X138747619Y-80224285D01*
X138795238Y-80319523D01*
X138890476Y-80414761D01*
X139033333Y-80462380D01*
X139128571Y-80462380D01*
X139271428Y-80414761D01*
X139319047Y-80367142D01*
X139319047Y-80033809D01*
X139128571Y-80033809D01*
X138700000Y-77636666D02*
X139176190Y-77636666D01*
X138604762Y-77922380D02*
X138938095Y-76922380D01*
X139271428Y-77922380D01*
X139795238Y-76922380D02*
X139890476Y-76922380D01*
X139985714Y-76970000D01*
X140033333Y-77017619D01*
X140080952Y-77112857D01*
X140128571Y-77303333D01*
X140128571Y-77541428D01*
X140080952Y-77731904D01*
X140033333Y-77827142D01*
X139985714Y-77874761D01*
X139890476Y-77922380D01*
X139795238Y-77922380D01*
X139700000Y-77874761D01*
X139652381Y-77827142D01*
X139604762Y-77731904D01*
X139557143Y-77541428D01*
X139557143Y-77303333D01*
X139604762Y-77112857D01*
X139652381Y-77017619D01*
X139700000Y-76970000D01*
X139795238Y-76922380D01*
X156718095Y-112482380D02*
X157337142Y-112482380D01*
X157003809Y-112863333D01*
X157146666Y-112863333D01*
X157241904Y-112910952D01*
X157289523Y-112958571D01*
X157337142Y-113053809D01*
X157337142Y-113291904D01*
X157289523Y-113387142D01*
X157241904Y-113434761D01*
X157146666Y-113482380D01*
X156860952Y-113482380D01*
X156765714Y-113434761D01*
X156718095Y-113387142D01*
X157622857Y-112482380D02*
X157956190Y-113482380D01*
X158289523Y-112482380D01*
X157741904Y-109990000D02*
X157646666Y-109942380D01*
X157503809Y-109942380D01*
X157360952Y-109990000D01*
X157265714Y-110085238D01*
X157218095Y-110180476D01*
X157170476Y-110370952D01*
X157170476Y-110513809D01*
X157218095Y-110704285D01*
X157265714Y-110799523D01*
X157360952Y-110894761D01*
X157503809Y-110942380D01*
X157599047Y-110942380D01*
X157741904Y-110894761D01*
X157789523Y-110847142D01*
X157789523Y-110513809D01*
X157599047Y-110513809D01*
X156718095Y-107402380D02*
X157289523Y-107402380D01*
X157003809Y-108402380D02*
X157003809Y-107402380D01*
X157527619Y-107402380D02*
X158194285Y-108402380D01*
X158194285Y-107402380D02*
X157527619Y-108402380D01*
X157313333Y-105862380D02*
X156980000Y-105386190D01*
X156741904Y-105862380D02*
X156741904Y-104862380D01*
X157122857Y-104862380D01*
X157218095Y-104910000D01*
X157265714Y-104957619D01*
X157313333Y-105052857D01*
X157313333Y-105195714D01*
X157265714Y-105290952D01*
X157218095Y-105338571D01*
X157122857Y-105386190D01*
X156741904Y-105386190D01*
X157646666Y-104862380D02*
X158313333Y-105862380D01*
X158313333Y-104862380D02*
X157646666Y-105862380D01*
X156741904Y-103322380D02*
X156741904Y-102322380D01*
X156980000Y-102322380D01*
X157122857Y-102370000D01*
X157218095Y-102465238D01*
X157265714Y-102560476D01*
X157313333Y-102750952D01*
X157313333Y-102893809D01*
X157265714Y-103084285D01*
X157218095Y-103179523D01*
X157122857Y-103274761D01*
X156980000Y-103322380D01*
X156741904Y-103322380D01*
X157884761Y-102750952D02*
X157789523Y-102703333D01*
X157741904Y-102655714D01*
X157694285Y-102560476D01*
X157694285Y-102512857D01*
X157741904Y-102417619D01*
X157789523Y-102370000D01*
X157884761Y-102322380D01*
X158075238Y-102322380D01*
X158170476Y-102370000D01*
X158218095Y-102417619D01*
X158265714Y-102512857D01*
X158265714Y-102560476D01*
X158218095Y-102655714D01*
X158170476Y-102703333D01*
X158075238Y-102750952D01*
X157884761Y-102750952D01*
X157789523Y-102798571D01*
X157741904Y-102846190D01*
X157694285Y-102941428D01*
X157694285Y-103131904D01*
X157741904Y-103227142D01*
X157789523Y-103274761D01*
X157884761Y-103322380D01*
X158075238Y-103322380D01*
X158170476Y-103274761D01*
X158218095Y-103227142D01*
X158265714Y-103131904D01*
X158265714Y-102941428D01*
X158218095Y-102846190D01*
X158170476Y-102798571D01*
X158075238Y-102750952D01*
X156741904Y-100782380D02*
X156741904Y-99782380D01*
X156980000Y-99782380D01*
X157122857Y-99830000D01*
X157218095Y-99925238D01*
X157265714Y-100020476D01*
X157313333Y-100210952D01*
X157313333Y-100353809D01*
X157265714Y-100544285D01*
X157218095Y-100639523D01*
X157122857Y-100734761D01*
X156980000Y-100782380D01*
X156741904Y-100782380D01*
X157646666Y-99782380D02*
X158313333Y-99782380D01*
X157884761Y-100782380D01*
X156741904Y-98242380D02*
X156741904Y-97242380D01*
X156980000Y-97242380D01*
X157122857Y-97290000D01*
X157218095Y-97385238D01*
X157265714Y-97480476D01*
X157313333Y-97670952D01*
X157313333Y-97813809D01*
X157265714Y-98004285D01*
X157218095Y-98099523D01*
X157122857Y-98194761D01*
X156980000Y-98242380D01*
X156741904Y-98242380D01*
X158170476Y-97242380D02*
X157980000Y-97242380D01*
X157884761Y-97290000D01*
X157837142Y-97337619D01*
X157741904Y-97480476D01*
X157694285Y-97670952D01*
X157694285Y-98051904D01*
X157741904Y-98147142D01*
X157789523Y-98194761D01*
X157884761Y-98242380D01*
X158075238Y-98242380D01*
X158170476Y-98194761D01*
X158218095Y-98147142D01*
X158265714Y-98051904D01*
X158265714Y-97813809D01*
X158218095Y-97718571D01*
X158170476Y-97670952D01*
X158075238Y-97623333D01*
X157884761Y-97623333D01*
X157789523Y-97670952D01*
X157741904Y-97718571D01*
X157694285Y-97813809D01*
X156741904Y-95702380D02*
X156741904Y-94702380D01*
X156980000Y-94702380D01*
X157122857Y-94750000D01*
X157218095Y-94845238D01*
X157265714Y-94940476D01*
X157313333Y-95130952D01*
X157313333Y-95273809D01*
X157265714Y-95464285D01*
X157218095Y-95559523D01*
X157122857Y-95654761D01*
X156980000Y-95702380D01*
X156741904Y-95702380D01*
X158218095Y-94702380D02*
X157741904Y-94702380D01*
X157694285Y-95178571D01*
X157741904Y-95130952D01*
X157837142Y-95083333D01*
X158075238Y-95083333D01*
X158170476Y-95130952D01*
X158218095Y-95178571D01*
X158265714Y-95273809D01*
X158265714Y-95511904D01*
X158218095Y-95607142D01*
X158170476Y-95654761D01*
X158075238Y-95702380D01*
X157837142Y-95702380D01*
X157741904Y-95654761D01*
X157694285Y-95607142D01*
X157741904Y-92210000D02*
X157646666Y-92162380D01*
X157503809Y-92162380D01*
X157360952Y-92210000D01*
X157265714Y-92305238D01*
X157218095Y-92400476D01*
X157170476Y-92590952D01*
X157170476Y-92733809D01*
X157218095Y-92924285D01*
X157265714Y-93019523D01*
X157360952Y-93114761D01*
X157503809Y-93162380D01*
X157599047Y-93162380D01*
X157741904Y-93114761D01*
X157789523Y-93067142D01*
X157789523Y-92733809D01*
X157599047Y-92733809D01*
X156718095Y-89622380D02*
X157337142Y-89622380D01*
X157003809Y-90003333D01*
X157146666Y-90003333D01*
X157241904Y-90050952D01*
X157289523Y-90098571D01*
X157337142Y-90193809D01*
X157337142Y-90431904D01*
X157289523Y-90527142D01*
X157241904Y-90574761D01*
X157146666Y-90622380D01*
X156860952Y-90622380D01*
X156765714Y-90574761D01*
X156718095Y-90527142D01*
X157622857Y-89622380D02*
X157956190Y-90622380D01*
X158289523Y-89622380D01*
X156741904Y-88082380D02*
X156741904Y-87082380D01*
X156980000Y-87082380D01*
X157122857Y-87130000D01*
X157218095Y-87225238D01*
X157265714Y-87320476D01*
X157313333Y-87510952D01*
X157313333Y-87653809D01*
X157265714Y-87844285D01*
X157218095Y-87939523D01*
X157122857Y-88034761D01*
X156980000Y-88082380D01*
X156741904Y-88082380D01*
X158170476Y-87415714D02*
X158170476Y-88082380D01*
X157932380Y-87034761D02*
X157694285Y-87749047D01*
X158313333Y-87749047D01*
X156741904Y-85542380D02*
X156741904Y-84542380D01*
X156980000Y-84542380D01*
X157122857Y-84590000D01*
X157218095Y-84685238D01*
X157265714Y-84780476D01*
X157313333Y-84970952D01*
X157313333Y-85113809D01*
X157265714Y-85304285D01*
X157218095Y-85399523D01*
X157122857Y-85494761D01*
X156980000Y-85542380D01*
X156741904Y-85542380D01*
X157646666Y-84542380D02*
X158265714Y-84542380D01*
X157932380Y-84923333D01*
X158075238Y-84923333D01*
X158170476Y-84970952D01*
X158218095Y-85018571D01*
X158265714Y-85113809D01*
X158265714Y-85351904D01*
X158218095Y-85447142D01*
X158170476Y-85494761D01*
X158075238Y-85542380D01*
X157789523Y-85542380D01*
X157694285Y-85494761D01*
X157646666Y-85447142D01*
X156741904Y-83002380D02*
X156741904Y-82002380D01*
X156980000Y-82002380D01*
X157122857Y-82050000D01*
X157218095Y-82145238D01*
X157265714Y-82240476D01*
X157313333Y-82430952D01*
X157313333Y-82573809D01*
X157265714Y-82764285D01*
X157218095Y-82859523D01*
X157122857Y-82954761D01*
X156980000Y-83002380D01*
X156741904Y-83002380D01*
X157694285Y-82097619D02*
X157741904Y-82050000D01*
X157837142Y-82002380D01*
X158075238Y-82002380D01*
X158170476Y-82050000D01*
X158218095Y-82097619D01*
X158265714Y-82192857D01*
X158265714Y-82288095D01*
X158218095Y-82430952D01*
X157646666Y-83002380D01*
X158265714Y-83002380D01*
X156741904Y-80462380D02*
X156741904Y-79462380D01*
X156980000Y-79462380D01*
X157122857Y-79510000D01*
X157218095Y-79605238D01*
X157265714Y-79700476D01*
X157313333Y-79890952D01*
X157313333Y-80033809D01*
X157265714Y-80224285D01*
X157218095Y-80319523D01*
X157122857Y-80414761D01*
X156980000Y-80462380D01*
X156741904Y-80462380D01*
X158265714Y-80462380D02*
X157694285Y-80462380D01*
X157980000Y-80462380D02*
X157980000Y-79462380D01*
X157884761Y-79605238D01*
X157789523Y-79700476D01*
X157694285Y-79748095D01*
X156741904Y-77922380D02*
X156741904Y-76922380D01*
X156980000Y-76922380D01*
X157122857Y-76970000D01*
X157218095Y-77065238D01*
X157265714Y-77160476D01*
X157313333Y-77350952D01*
X157313333Y-77493809D01*
X157265714Y-77684285D01*
X157218095Y-77779523D01*
X157122857Y-77874761D01*
X156980000Y-77922380D01*
X156741904Y-77922380D01*
X157932380Y-76922380D02*
X158027619Y-76922380D01*
X158122857Y-76970000D01*
X158170476Y-77017619D01*
X158218095Y-77112857D01*
X158265714Y-77303333D01*
X158265714Y-77541428D01*
X158218095Y-77731904D01*
X158170476Y-77827142D01*
X158122857Y-77874761D01*
X158027619Y-77922380D01*
X157932380Y-77922380D01*
X157837142Y-77874761D01*
X157789523Y-77827142D01*
X157741904Y-77731904D01*
X157694285Y-77541428D01*
X157694285Y-77303333D01*
X157741904Y-77112857D01*
X157789523Y-77017619D01*
X157837142Y-76970000D01*
X157932380Y-76922380D01*
X147328095Y-116927380D02*
X147328095Y-117736904D01*
X147375714Y-117832142D01*
X147423333Y-117879761D01*
X147518571Y-117927380D01*
X147709047Y-117927380D01*
X147804285Y-117879761D01*
X147851904Y-117832142D01*
X147899523Y-117736904D01*
X147899523Y-116927380D01*
X148328095Y-117879761D02*
X148470952Y-117927380D01*
X148709047Y-117927380D01*
X148804285Y-117879761D01*
X148851904Y-117832142D01*
X148899523Y-117736904D01*
X148899523Y-117641666D01*
X148851904Y-117546428D01*
X148804285Y-117498809D01*
X148709047Y-117451190D01*
X148518571Y-117403571D01*
X148423333Y-117355952D01*
X148375714Y-117308333D01*
X148328095Y-117213095D01*
X148328095Y-117117857D01*
X148375714Y-117022619D01*
X148423333Y-116975000D01*
X148518571Y-116927380D01*
X148756666Y-116927380D01*
X148899523Y-116975000D01*
X149661428Y-117403571D02*
X149804285Y-117451190D01*
X149851904Y-117498809D01*
X149899523Y-117594047D01*
X149899523Y-117736904D01*
X149851904Y-117832142D01*
X149804285Y-117879761D01*
X149709047Y-117927380D01*
X149328095Y-117927380D01*
X149328095Y-116927380D01*
X149661428Y-116927380D01*
X149756666Y-116975000D01*
X149804285Y-117022619D01*
X149851904Y-117117857D01*
X149851904Y-117213095D01*
X149804285Y-117308333D01*
X149756666Y-117355952D01*
X149661428Y-117403571D01*
X149328095Y-117403571D01*
G04 #@! TD*
M02*
