M48
;DRILL file {KiCad (5.0.1)-4} date 08-Dec-18 12:21:23 AM
;FORMAT={-:-/ absolute / inch / decimal}
FMAT,2
INCH,TZ
T1C0.0276
T2C0.0295
T3C0.0300
T4C0.0315
T5C0.0354
T6C0.0394
%
G90
G05
M72
T1
X5.7Y-3.125
X6.Y-3.125
X5.65Y-3.7
X5.65Y-4.
X6.05Y-3.7
X6.05Y-4.
T2
X5.65Y-3.325
X5.7Y-3.325
X5.75Y-3.325
X5.95Y-3.325
X6.Y-3.325
X6.05Y-3.325
T3
X5.4Y-3.05
X5.4Y-3.15
X5.4Y-3.25
X5.4Y-3.35
X5.4Y-3.45
X5.4Y-3.55
X5.4Y-3.65
X5.4Y-3.75
X5.4Y-3.85
X5.4Y-3.95
X5.4Y-4.05
X5.4Y-4.15
X5.4Y-4.25
X5.4Y-4.35
X5.4Y-4.45
X6.3Y-3.05
X6.3Y-3.15
X6.3Y-3.25
X6.3Y-3.35
X6.3Y-3.45
X6.3Y-3.55
X6.3Y-3.65
X6.3Y-3.75
X6.3Y-3.85
X6.3Y-3.95
X6.3Y-4.05
X6.3Y-4.15
X6.3Y-4.25
X6.3Y-4.35
X6.3Y-4.45
T4
X5.6016Y-3.5
X5.7Y-3.5
X6.Y-3.5
X6.0984Y-3.5
T5
X5.7Y-3.
X6.Y-3.
T6
X5.65Y-4.25
X5.65Y-4.35
X5.65Y-4.45
X6.05Y-4.25
X6.05Y-4.35
X6.05Y-4.45
T6
X5.8894Y-3.6516G85X5.8106Y-3.6516
G05
X5.8894Y-3.8681G85X5.8106Y-3.8681
G05
T0
M30
