G04 #@! TF.GenerationSoftware,KiCad,Pcbnew,(5.0.1)-4*
G04 #@! TF.CreationDate,2018-12-08T00:24:21+01:00*
G04 #@! TF.ProjectId,Motion Detector,4D6F74696F6E204465746563746F722E,rev?*
G04 #@! TF.SameCoordinates,Original*
G04 #@! TF.FileFunction,Copper,L1,Top,Signal*
G04 #@! TF.FilePolarity,Positive*
%FSLAX46Y46*%
G04 Gerber Fmt 4.6, Leading zero omitted, Abs format (unit mm)*
G04 Created by KiCad (PCBNEW (5.0.1)-4) date 08-Dec-18 12:24:21 AM*
%MOMM*%
%LPD*%
G01*
G04 APERTURE LIST*
G04 #@! TA.AperFunction,ComponentPad*
%ADD10C,1.600000*%
G04 #@! TD*
G04 #@! TA.AperFunction,ComponentPad*
%ADD11R,1.800000X1.800000*%
G04 #@! TD*
G04 #@! TA.AperFunction,ComponentPad*
%ADD12O,1.800000X1.800000*%
G04 #@! TD*
G04 #@! TA.AperFunction,ComponentPad*
%ADD13O,5.000000X2.000000*%
G04 #@! TD*
G04 #@! TA.AperFunction,ComponentPad*
%ADD14R,1.700000X1.700000*%
G04 #@! TD*
G04 #@! TA.AperFunction,ComponentPad*
%ADD15O,1.700000X1.700000*%
G04 #@! TD*
G04 #@! TA.AperFunction,ComponentPad*
%ADD16O,1.050000X1.500000*%
G04 #@! TD*
G04 #@! TA.AperFunction,ComponentPad*
%ADD17R,1.050000X1.500000*%
G04 #@! TD*
G04 #@! TA.AperFunction,ComponentPad*
%ADD18O,1.400000X1.400000*%
G04 #@! TD*
G04 #@! TA.AperFunction,ComponentPad*
%ADD19C,1.400000*%
G04 #@! TD*
G04 #@! TA.AperFunction,ComponentPad*
%ADD20C,1.524000*%
G04 #@! TD*
G04 #@! TA.AperFunction,Conductor*
%ADD21C,0.250000*%
G04 #@! TD*
G04 APERTURE END LIST*
D10*
G04 #@! TO.P,C1,2*
G04 #@! TO.N,/D2*
X154900000Y-88900000D03*
G04 #@! TO.P,C1,1*
G04 #@! TO.N,/DB2*
X152400000Y-88900000D03*
G04 #@! TD*
G04 #@! TO.P,C2,2*
G04 #@! TO.N,/D1*
X142280000Y-88900000D03*
G04 #@! TO.P,C2,1*
G04 #@! TO.N,/DB1*
X144780000Y-88900000D03*
G04 #@! TD*
D11*
G04 #@! TO.P,D1,1*
G04 #@! TO.N,/D0*
X152400000Y-76200000D03*
D12*
G04 #@! TO.P,D1,2*
G04 #@! TO.N,/RST*
X144780000Y-76200000D03*
G04 #@! TD*
D13*
G04 #@! TO.P,J1,1*
G04 #@! TO.N,GND*
X148590000Y-92750000D03*
G04 #@! TO.P,J1,2*
G04 #@! TO.N,VCC*
X148590000Y-98250000D03*
G04 #@! TD*
D14*
G04 #@! TO.P,J2,1*
G04 #@! TO.N,GND*
X153670000Y-107950000D03*
D15*
G04 #@! TO.P,J2,2*
G04 #@! TO.N,/D2*
X153670000Y-110490000D03*
G04 #@! TO.P,J2,3*
G04 #@! TO.N,VCC*
X153670000Y-113030000D03*
G04 #@! TD*
G04 #@! TO.P,J3,3*
G04 #@! TO.N,VCC*
X143510000Y-113030000D03*
G04 #@! TO.P,J3,2*
G04 #@! TO.N,/D1*
X143510000Y-110490000D03*
D14*
G04 #@! TO.P,J3,1*
G04 #@! TO.N,GND*
X143510000Y-107950000D03*
G04 #@! TD*
D16*
G04 #@! TO.P,Q1,2*
G04 #@! TO.N,/DB2*
X152400000Y-84455000D03*
G04 #@! TO.P,Q1,3*
G04 #@! TO.N,GND*
X153670000Y-84455000D03*
D17*
G04 #@! TO.P,Q1,1*
G04 #@! TO.N,/RST*
X151130000Y-84455000D03*
G04 #@! TD*
G04 #@! TO.P,Q2,1*
G04 #@! TO.N,/RST*
X143510000Y-84455000D03*
D16*
G04 #@! TO.P,Q2,3*
G04 #@! TO.N,GND*
X146050000Y-84455000D03*
G04 #@! TO.P,Q2,2*
G04 #@! TO.N,/DB1*
X144780000Y-84455000D03*
G04 #@! TD*
D18*
G04 #@! TO.P,R1,2*
G04 #@! TO.N,/DB2*
X153670000Y-93980000D03*
D19*
G04 #@! TO.P,R1,1*
G04 #@! TO.N,GND*
X153670000Y-101600000D03*
G04 #@! TD*
G04 #@! TO.P,R2,1*
G04 #@! TO.N,GND*
X143510000Y-101600000D03*
D18*
G04 #@! TO.P,R2,2*
G04 #@! TO.N,/DB1*
X143510000Y-93980000D03*
G04 #@! TD*
D19*
G04 #@! TO.P,R3,1*
G04 #@! TO.N,/RST*
X144780000Y-79375000D03*
D18*
G04 #@! TO.P,R3,2*
G04 #@! TO.N,+3V3*
X152400000Y-79375000D03*
G04 #@! TD*
D20*
G04 #@! TO.P,U1,1*
G04 #@! TO.N,Net-(U1-Pad1)*
X137160000Y-77470000D03*
G04 #@! TO.P,U1,2*
G04 #@! TO.N,Net-(U1-Pad2)*
X137160000Y-80010000D03*
G04 #@! TO.P,U1,3*
G04 #@! TO.N,Net-(U1-Pad3)*
X137160000Y-82550000D03*
G04 #@! TO.P,U1,4*
G04 #@! TO.N,Net-(U1-Pad4)*
X137160000Y-85090000D03*
G04 #@! TO.P,U1,5*
G04 #@! TO.N,Net-(U1-Pad5)*
X137160000Y-87630000D03*
G04 #@! TO.P,U1,6*
G04 #@! TO.N,Net-(U1-Pad6)*
X137160000Y-90170000D03*
G04 #@! TO.P,U1,7*
G04 #@! TO.N,Net-(U1-Pad7)*
X137160000Y-92710000D03*
G04 #@! TO.P,U1,8*
G04 #@! TO.N,Net-(U1-Pad8)*
X137160000Y-95250000D03*
G04 #@! TO.P,U1,9*
G04 #@! TO.N,Net-(U1-Pad9)*
X137160000Y-97790000D03*
G04 #@! TO.P,U1,10*
G04 #@! TO.N,GND*
X137160000Y-100330000D03*
G04 #@! TO.P,U1,11*
G04 #@! TO.N,+3V3*
X137160000Y-102870000D03*
G04 #@! TO.P,U1,12*
G04 #@! TO.N,Net-(U1-Pad12)*
X137160000Y-105410000D03*
G04 #@! TO.P,U1,13*
G04 #@! TO.N,/RST*
X137160000Y-107950000D03*
G04 #@! TO.P,U1,14*
G04 #@! TO.N,GND*
X137160000Y-110490000D03*
G04 #@! TO.P,U1,15*
G04 #@! TO.N,VCC*
X137160000Y-113030000D03*
G04 #@! TO.P,U1,16*
G04 #@! TO.N,+3V3*
X160020000Y-113030000D03*
G04 #@! TO.P,U1,17*
G04 #@! TO.N,GND*
X160020000Y-110490000D03*
G04 #@! TO.P,U1,18*
G04 #@! TO.N,Net-(U1-Pad18)*
X160020000Y-107950000D03*
G04 #@! TO.P,U1,19*
G04 #@! TO.N,Net-(U1-Pad19)*
X160020000Y-105410000D03*
G04 #@! TO.P,U1,20*
G04 #@! TO.N,Net-(U1-Pad20)*
X160020000Y-102870000D03*
G04 #@! TO.P,U1,21*
G04 #@! TO.N,Net-(U1-Pad21)*
X160020000Y-100330000D03*
G04 #@! TO.P,U1,22*
G04 #@! TO.N,Net-(U1-Pad22)*
X160020000Y-97790000D03*
G04 #@! TO.P,U1,23*
G04 #@! TO.N,Net-(U1-Pad23)*
X160020000Y-95250000D03*
G04 #@! TO.P,U1,24*
G04 #@! TO.N,GND*
X160020000Y-92710000D03*
G04 #@! TO.P,U1,25*
G04 #@! TO.N,+3V3*
X160020000Y-90170000D03*
G04 #@! TO.P,U1,26*
G04 #@! TO.N,Net-(U1-Pad26)*
X160020000Y-87630000D03*
G04 #@! TO.P,U1,27*
G04 #@! TO.N,Net-(U1-Pad27)*
X160020000Y-85090000D03*
G04 #@! TO.P,U1,28*
G04 #@! TO.N,/D2*
X160020000Y-82550000D03*
G04 #@! TO.P,U1,29*
G04 #@! TO.N,/D1*
X160020000Y-80010000D03*
G04 #@! TO.P,U1,30*
G04 #@! TO.N,/D0*
X160020000Y-77470000D03*
G04 #@! TD*
D21*
G04 #@! TO.N,/DB2*
X152400000Y-84455000D02*
X152400000Y-88900000D01*
X152400000Y-89900000D02*
X152400000Y-88900000D01*
X152400000Y-91720051D02*
X152400000Y-89900000D01*
X153670000Y-93980000D02*
X153670000Y-92990051D01*
X153670000Y-92990051D02*
X152400000Y-91720051D01*
G04 #@! TO.N,/D2*
X156845000Y-90845000D02*
X154900000Y-88900000D01*
X156845000Y-109220000D02*
X156845000Y-90845000D01*
X153670000Y-110490000D02*
X155575000Y-110490000D01*
X155575000Y-110490000D02*
X156845000Y-109220000D01*
X154900000Y-88900000D02*
X156845000Y-88900000D01*
X156845000Y-88900000D02*
X158115000Y-87630000D01*
X158115000Y-87630000D02*
X158115000Y-84455000D01*
X158115000Y-84455000D02*
X160020000Y-82550000D01*
G04 #@! TO.N,/D1*
X155575000Y-95250000D02*
X155575000Y-92075000D01*
X156210000Y-86360000D02*
X156210000Y-83820000D01*
X154305000Y-86995000D02*
X155575000Y-86995000D01*
X155575000Y-86995000D02*
X156210000Y-86360000D01*
X153670000Y-87630000D02*
X154305000Y-86995000D01*
X155575000Y-92075000D02*
X153670000Y-90170000D01*
X153670000Y-90170000D02*
X153670000Y-87630000D01*
X154940000Y-95885000D02*
X155575000Y-95250000D01*
X156210000Y-83820000D02*
X159258001Y-80771999D01*
X159258001Y-80771999D02*
X160020000Y-80010000D01*
X142280000Y-88900000D02*
X142280000Y-92670000D01*
X142280000Y-92670000D02*
X141605000Y-93345000D01*
X141605000Y-95250000D02*
X142240000Y-95885000D01*
X141605000Y-93345000D02*
X141605000Y-95250000D01*
X142240000Y-95885000D02*
X154940000Y-95885000D01*
X142240000Y-110490000D02*
X143510000Y-110490000D01*
X141605000Y-109855000D02*
X142240000Y-110490000D01*
X142240000Y-95885000D02*
X141605000Y-96520000D01*
X141605000Y-96520000D02*
X141605000Y-109855000D01*
X141605000Y-96202500D02*
X141922500Y-95885000D01*
X141605000Y-96266000D02*
X141605000Y-96202500D01*
X141922500Y-95885000D02*
X141605000Y-95885000D01*
X142240000Y-95885000D02*
X141922500Y-95885000D01*
X141605000Y-96266000D02*
X141605000Y-96520000D01*
X141605000Y-95885000D02*
X141605000Y-96266000D01*
X141605000Y-95567500D02*
X141922500Y-95885000D01*
X141605000Y-95504000D02*
X141605000Y-95567500D01*
X141605000Y-95504000D02*
X141605000Y-95885000D01*
X141605000Y-95250000D02*
X141605000Y-95504000D01*
G04 #@! TO.N,/DB1*
X144780000Y-91694000D02*
X144780000Y-88900000D01*
X143510000Y-93980000D02*
X143510000Y-92964000D01*
X143510000Y-92964000D02*
X144780000Y-91694000D01*
X144780000Y-88900000D02*
X144780000Y-84455000D01*
G04 #@! TO.N,/D0*
X158750000Y-76200000D02*
X160020000Y-77470000D01*
X152400000Y-76200000D02*
X158750000Y-76200000D01*
G04 #@! TO.N,/RST*
X144780000Y-76200000D02*
X144780000Y-79375000D01*
X141605000Y-84455000D02*
X143510000Y-84455000D01*
X139700000Y-86360000D02*
X141605000Y-84455000D01*
X139700000Y-106680000D02*
X139700000Y-86360000D01*
X137160000Y-107950000D02*
X138430000Y-107950000D01*
X138430000Y-107950000D02*
X139700000Y-106680000D01*
X143510000Y-80645000D02*
X144780000Y-79375000D01*
X143510000Y-84455000D02*
X143510000Y-80645000D01*
X145769949Y-79375000D02*
X144780000Y-79375000D01*
X147050000Y-79375000D02*
X145769949Y-79375000D01*
X151130000Y-83455000D02*
X147050000Y-79375000D01*
X151130000Y-84455000D02*
X151130000Y-83455000D01*
G04 #@! TD*
M02*
